<svg xmlns="http://www.w3.org/2000/svg" viewBox="0 0 1200 900" width="1200" height="900" role="img" aria-label="Electrodynamic tether assist">
  <defs>
    <radialGradient id="atmoGlow" cx="50%" cy="50%" r="50%">
      <stop offset="0%" stop-color="#8ec9ff" stop-opacity="0"/>
      <stop offset="62%" stop-color="#8ec9ff" stop-opacity="0"/>
      <stop offset="100%" stop-color="#8ec9ff" stop-opacity="0.26"/>
    </radialGradient>
    <marker id="arrowhead" markerWidth="10" markerHeight="8" refX="8" refY="4" orient="auto" markerUnits="strokeWidth">
      <path d="M 0 0 L 10 4 L 0 8 z" fill="#aab7c4"/>
    </marker>
    <marker id="arrowheadWarm" markerWidth="10" markerHeight="8" refX="8" refY="4" orient="auto" markerUnits="strokeWidth">
      <path d="M 0 0 L 10 4 L 0 8 z" fill="#ff8e42"/>
    </marker>
    <marker id="arrowheadGreen" markerWidth="10" markerHeight="8" refX="8" refY="4" orient="auto" markerUnits="strokeWidth">
      <path d="M 0 0 L 10 4 L 0 8 z" fill="#a8d85f"/>
    </marker>
    <style>
      .bg { fill: #11161c; }
      .title { fill: #e9eef3; font: 600 26px Arial, Helvetica, sans-serif; letter-spacing: 0.2px; }
      .label { fill: #e9eef3; font: 20px Arial, Helvetica, sans-serif; }
      .soft { fill: #aab7c4; font: 18px Arial, Helvetica, sans-serif; }
      .orbit { fill: none; stroke: #bcc5cf; stroke-width: 2.5; opacity: 0.95; }
      .orbit-dashed { fill: none; stroke: #a8d85f; stroke-width: 2.5; stroke-dasharray: 9 8; opacity: 0.95; }
      .beam { fill: none; stroke: #7fdcff; stroke-width: 2.6; stroke-dasharray: 2 8; opacity: 0.95; }
      .collect-arc { fill: none; stroke: #ff8e42; stroke-width: 8; stroke-linecap: round; }
      .collect-hot { fill: none; stroke: #ff5d4d; stroke-width: 10; stroke-linecap: round; }
      .recovery-arc { fill: none; stroke: #6fd0c8; stroke-width: 6; stroke-linecap: round; opacity: 0.9; }
      .tether { fill: none; stroke: #d8e4ef; stroke-width: 4; }
      .vehicle { fill: #e9eef3; stroke: #11161c; stroke-width: 2; }
      .station { fill: #e9eef3; stroke: #11161c; stroke-width: 2; }
      .ring { fill: none; stroke: #e9eef3; stroke-width: 3; opacity: 0.9; }
      .leader { fill: none; stroke: #aab7c4; stroke-width: 1.8; }
      .arrow { fill: none; stroke: #aab7c4; stroke-width: 2.4; }
      .arrow-warm { fill: none; stroke: #ff8e42; stroke-width: 2.4; marker-end: url(#arrowheadWarm); }
      .arrow-green { fill: none; stroke: #a8d85f; stroke-width: 2.6; marker-end: url(#arrowheadGreen); }
      .field { fill: none; stroke: #7fdcff; stroke-width: 2.2; opacity: 0.5; }
      .ionosphere { fill: none; stroke: #6f89d0; stroke-width: 18; opacity: 0.16; }
      .magnetic { fill: none; stroke: #7fdcff; stroke-width: 1.8; opacity: 0.35; }
    </style>
  </defs>
  <rect class="bg" x="0" y="0" width="1200" height="900"/>
  <text x="48" y="54" class="title">Electrodynamic tether assist</text>
  
    
    <g>
      <circle cx="600" cy="450" r="190" fill="url(#atmoGlow)" opacity="0.55"/>
      <circle cx="600" cy="450" r="169" fill="none" stroke="#8ec9ff" stroke-opacity="0.22" stroke-width="26"/>
      <circle cx="600" cy="450" r="153" fill="none" stroke="#a9dcff" stroke-opacity="0.20" stroke-width="14"/>
      
      <circle cx="600" cy="450" r="135" fill="#4d7ea8"/>
    </g>
    
    <path d="M 465.28 310.2 A 162.5 250 0 0 1 734.72 310.2" class="magnetic"/><path d="M 734.72 589.8 A 162.5 250 0 0 1 465.28 589.8" class="magnetic"/><path d="M 510.24 166.88 A 204.75 315 0 0 1 734.33 212.27" class="magnetic"/><path d="M 747.28 668.82 A 204.75 315 0 0 1 452.72 668.82" class="magnetic"/><path d="M 582.77 70.93 A 247 380 0 0 1 723.5 120.91" class="magnetic"/><path d="M 754.32 746.7 A 247 380 0 0 1 445.68 746.7" class="magnetic"/>
    <circle cx="600" cy="450" r="185" class="orbit"/>
    <circle cx="763.35" cy="363.15" r="7" class="vehicle"/>
    <path d="M 763.35 363.15 L 828.35 158.15" class="tether"/>
    <text x="844.35" y="164.15" class="label">electrodynamic tether</text>
    <path d="M 765.35 362.15 L 781.35 417.15" class="arrow-warm"/>
    <path d="M 761.35 364.15 L 745.35 305.15" class="arrow-green"/>
    <text x="789.35" y="433.15" class="soft">drag</text>
    <text x="655.35" y="299.15" class="soft">thrust</text>
    <path d="M 763.35 363.15 L 791.35 409.15" class="leader"/><text x="797.35" y="429.15" class="label">scoop</text>
    <text x="785" y="700" class="label">Lorentz thrust offsets drag</text>
    
</svg>
