<svg xmlns="http://www.w3.org/2000/svg" viewBox="0 0 1200 900" width="1200" height="900" role="img" aria-label="Distributed collectors + central depot">
  <defs>
    <radialGradient id="atmoGlow" cx="50%" cy="50%" r="50%">
      <stop offset="0%" stop-color="#8ec9ff" stop-opacity="0"/>
      <stop offset="62%" stop-color="#8ec9ff" stop-opacity="0"/>
      <stop offset="100%" stop-color="#8ec9ff" stop-opacity="0.26"/>
    </radialGradient>
    <marker id="arrowhead" markerWidth="10" markerHeight="8" refX="8" refY="4" orient="auto" markerUnits="strokeWidth">
      <path d="M 0 0 L 10 4 L 0 8 z" fill="#aab7c4"/>
    </marker>
    <marker id="arrowheadWarm" markerWidth="10" markerHeight="8" refX="8" refY="4" orient="auto" markerUnits="strokeWidth">
      <path d="M 0 0 L 10 4 L 0 8 z" fill="#ff8e42"/>
    </marker>
    <marker id="arrowheadGreen" markerWidth="10" markerHeight="8" refX="8" refY="4" orient="auto" markerUnits="strokeWidth">
      <path d="M 0 0 L 10 4 L 0 8 z" fill="#a8d85f"/>
    </marker>
    <style>
      .bg { fill: #11161c; }
      .title { fill: #e9eef3; font: 600 26px Arial, Helvetica, sans-serif; letter-spacing: 0.2px; }
      .label { fill: #e9eef3; font: 20px Arial, Helvetica, sans-serif; }
      .soft { fill: #aab7c4; font: 18px Arial, Helvetica, sans-serif; }
      .orbit { fill: none; stroke: #bcc5cf; stroke-width: 2.5; opacity: 0.95; }
      .orbit-dashed { fill: none; stroke: #a8d85f; stroke-width: 2.5; stroke-dasharray: 9 8; opacity: 0.95; }
      .beam { fill: none; stroke: #7fdcff; stroke-width: 2.6; stroke-dasharray: 2 8; opacity: 0.95; }
      .collect-arc { fill: none; stroke: #ff8e42; stroke-width: 8; stroke-linecap: round; }
      .collect-hot { fill: none; stroke: #ff5d4d; stroke-width: 10; stroke-linecap: round; }
      .recovery-arc { fill: none; stroke: #6fd0c8; stroke-width: 6; stroke-linecap: round; opacity: 0.9; }
      .tether { fill: none; stroke: #d8e4ef; stroke-width: 4; }
      .vehicle { fill: #e9eef3; stroke: #11161c; stroke-width: 2; }
      .station { fill: #e9eef3; stroke: #11161c; stroke-width: 2; }
      .ring { fill: none; stroke: #e9eef3; stroke-width: 3; opacity: 0.9; }
      .leader { fill: none; stroke: #aab7c4; stroke-width: 1.8; }
      .arrow { fill: none; stroke: #aab7c4; stroke-width: 2.4; }
      .arrow-warm { fill: none; stroke: #ff8e42; stroke-width: 2.4; marker-end: url(#arrowheadWarm); }
      .arrow-green { fill: none; stroke: #a8d85f; stroke-width: 2.6; marker-end: url(#arrowheadGreen); }
      .field { fill: none; stroke: #7fdcff; stroke-width: 2.2; opacity: 0.5; }
      .ionosphere { fill: none; stroke: #6f89d0; stroke-width: 18; opacity: 0.16; }
      .magnetic { fill: none; stroke: #7fdcff; stroke-width: 1.8; opacity: 0.35; }
    </style>
  </defs>
  <rect class="bg" x="0" y="0" width="1200" height="900"/>
  <text x="48" y="54" class="title">Distributed collectors + central depot</text>
  
    <g>
      <circle cx="600" cy="450" r="190" fill="url(#atmoGlow)" opacity="0.55"/>
      <circle cx="600" cy="450" r="169" fill="none" stroke="#8ec9ff" stroke-opacity="0.22" stroke-width="26"/>
      <circle cx="600" cy="450" r="153" fill="none" stroke="#a9dcff" stroke-opacity="0.20" stroke-width="14"/>
      
      <circle cx="600" cy="450" r="135" fill="#4d7ea8"/>
    </g>
    <circle cx="600" cy="450" r="189" class="orbit"/><circle cx="600" cy="450" r="370" class="orbit"/><circle cx="612.91" cy="80.23" r="11" class="station"/><path d="M 612.91 80.23 L 644.91 44.23" class="leader"/><text x="650.91" y="40.23" class="label">central depot</text><text x="470" y="673" class="label">distributed collection</text><text x="770" y="434" class="soft">rendezvous + offload</text><circle cx="779.75" cy="391.6" r="6" class="vehicle"/><path d="M 779.75 391.6 L 781.94 398.69 L 783.92 405.85 L 785.68 413.07 L 787.24 420.34 L 788.58 427.68 L 789.7 435.07 L 790.6 442.51 L 791.29 450 L 791.75 457.53 L 791.99 465.11 L 792 472.73 L 791.79 480.38 L 791.34 488.06 L 790.65 495.77 L 789.72 503.51 L 788.56 511.27 L 787.15 519.04 L 785.48 526.83 L 783.57 534.63 L 781.4 542.43 L 778.96 550.22 L 776.26 558.01 L 773.29 565.79 L 770.05 573.55 L 766.53 581.28 L 762.72 588.98 L 758.63 596.63 L 754.24 604.24 L 749.56 611.79 L 744.58 619.28 L 739.29 626.68 L 733.69 634 L 727.77 641.22 L 721.54 648.34 L 714.99 655.33 L 708.11 662.18 L 700.91 668.88 L 693.37 675.42 L 685.51 681.79 L 677.32 687.95 L 668.79 693.9 L 659.93 699.63 L 650.74 705.1 L 641.23 710.3 L 631.39 715.22 L 621.24 719.82 L 610.77 724.09 L 600 728.01 L 588.94 731.56 L 577.59 734.7 L 565.98 737.43 L 554.12 739.7 L 542.02 741.51 L 529.7 742.82 L 517.19 743.62 L 504.51 743.88 L 491.69 743.58 L 478.76 742.7 L 465.74 741.22 L 452.68 739.12 L 439.61 736.39 L 426.57 733.01 L 413.6 728.97 L 400.74 724.26 L 388.04 718.87 L 375.54 712.81 L 363.3 706.07 L 351.35 698.65 L 339.75 690.57 L 328.54 681.85 L 317.79 672.48 L 307.52 662.5 L 297.79 651.93 L 288.64 640.8 L 280.12 629.14 L 272.26 616.99 L 265.1 604.39 L 258.67 591.38 L 253 578.02 L 248.11 564.34" class="orbit-dashed"/><circle cx="756.69" cy="555.69" r="6" class="vehicle"/><path d="M 756.69 555.69 L 752.45 561.78 L 748.02 567.74 L 743.42 573.58 L 738.64 579.29 L 733.69 584.86 L 728.56 590.29 L 723.25 595.59 L 717.77 600.74 L 712.12 605.74 L 706.3 610.59 L 700.3 615.29 L 694.14 619.83 L 687.81 624.21 L 681.31 628.41 L 674.64 632.45 L 667.81 636.3 L 660.81 639.98 L 653.65 643.46 L 646.33 646.75 L 638.85 649.84 L 631.2 652.73 L 623.4 655.4 L 615.45 657.84 L 607.34 660.06 L 599.07 662.05 L 590.67 663.79 L 582.11 665.28 L 573.42 666.51 L 564.58 667.46 L 555.62 668.14 L 546.52 668.54 L 537.31 668.63 L 527.98 668.42 L 518.54 667.88 L 508.99 667.02 L 499.36 665.82 L 489.64 664.27 L 479.85 662.37 L 470 660.08 L 460.09 657.42 L 450.15 654.37 L 440.19 650.91 L 430.22 647.04 L 420.26 642.75 L 410.33 638.02 L 400.45 632.85 L 390.64 627.24 L 380.92 621.16 L 371.32 614.63 L 361.86 607.62 L 352.56 600.15 L 343.46 592.2 L 334.59 583.78 L 325.97 574.88 L 317.64 565.52 L 309.63 555.69 L 301.97 545.4 L 294.7 534.67 L 287.86 523.5 L 281.47 511.92 L 275.58 499.93 L 270.21 487.57 L 265.41 474.86 L 261.21 461.83 L 257.63 448.51 L 254.72 434.92 L 252.49 421.12 L 250.97 407.14 L 250.2 393.03 L 250.18 378.83 L 250.93 364.58 L 252.48 350.35 L 254.82 336.18 L 257.96 322.12 L 261.9 308.22 L 266.63 294.55 L 272.15 281.15 L 278.44 268.07 L 285.49 255.37 L 293.26 243.1" class="orbit-dashed"/><circle cx="511.27" cy="616.88" r="6" class="vehicle"/><path d="M 511.27 616.88 L 504.77 613.3 L 498.37 609.52 L 492.09 605.56 L 485.91 601.4 L 479.85 597.05 L 473.91 592.52 L 468.09 587.79 L 462.4 582.88 L 456.83 577.78 L 451.4 572.5 L 446.1 567.03 L 440.94 561.38 L 435.93 555.54 L 431.06 549.51 L 426.35 543.3 L 421.8 536.91 L 417.42 530.34 L 413.2 523.58 L 409.17 516.64 L 405.31 509.52 L 401.64 502.22 L 398.17 494.74 L 394.91 487.09 L 391.85 479.25 L 389.02 471.24 L 386.41 463.06 L 384.03 454.71 L 381.9 446.19 L 380.03 437.51 L 378.41 428.66 L 377.07 419.66 L 376.02 410.51 L 375.25 401.2 L 374.8 391.76 L 374.65 382.18 L 374.84 372.47 L 375.36 362.64 L 376.24 352.71 L 377.48 342.67 L 379.09 332.54 L 381.09 322.33 L 383.49 312.07 L 386.29 301.75 L 389.52 291.39 L 393.19 281.03 L 397.29 270.66 L 401.85 260.31 L 406.88 250.01 L 412.37 239.78 L 418.35 229.64 L 424.81 219.61 L 431.76 209.73 L 439.21 200.03 L 447.16 190.52 L 455.6 181.26 L 464.54 172.27 L 473.97 163.58 L 483.89 155.23 L 494.28 147.25 L 505.13 139.69 L 516.43 132.57 L 528.16 125.95 L 540.3 119.84 L 552.82 114.3 L 565.7 109.35 L 578.9 105.03 L 592.39 101.37 L 606.14 98.41 L 620.09 96.16 L 634.22 94.66 L 648.46 93.92 L 662.78 93.97 L 677.12 94.81 L 691.43 96.46 L 705.66 98.93 L 719.75 102.21 L 733.66 106.3 L 747.32 111.19 L 760.69 116.86 L 773.7 123.31" class="orbit-dashed"/><circle cx="443.31" cy="344.31" r="6" class="vehicle"/><path d="M 443.31 344.31 L 447.55 338.22 L 451.98 332.26 L 456.58 326.42 L 461.36 320.71 L 466.31 315.14 L 471.44 309.71 L 476.75 304.41 L 482.23 299.26 L 487.88 294.26 L 493.7 289.41 L 499.7 284.71 L 505.86 280.17 L 512.19 275.79 L 518.69 271.59 L 525.36 267.55 L 532.19 263.7 L 539.19 260.02 L 546.35 256.54 L 553.67 253.25 L 561.15 250.16 L 568.8 247.27 L 576.6 244.6 L 584.55 242.16 L 592.66 239.94 L 600.93 237.95 L 609.33 236.21 L 617.89 234.72 L 626.58 233.49 L 635.42 232.54 L 644.38 231.86 L 653.48 231.46 L 662.69 231.37 L 672.02 231.58 L 681.46 232.12 L 691.01 232.98 L 700.64 234.18 L 710.36 235.73 L 720.15 237.63 L 730 239.92 L 739.91 242.58 L 749.85 245.63 L 759.81 249.09 L 769.78 252.96 L 779.74 257.25 L 789.67 261.98 L 799.55 267.15 L 809.36 272.76 L 819.08 278.84 L 828.68 285.37 L 838.14 292.38 L 847.44 299.85 L 856.54 307.8 L 865.41 316.22 L 874.03 325.12 L 882.36 334.48 L 890.37 344.31 L 898.03 354.6 L 905.3 365.33 L 912.14 376.5 L 918.53 388.08 L 924.42 400.07 L 929.79 412.43 L 934.59 425.14 L 938.79 438.17 L 942.37 451.49 L 945.28 465.08 L 947.51 478.88 L 949.03 492.86 L 949.8 506.97 L 949.82 521.17 L 949.07 535.42 L 947.52 549.65 L 945.18 563.82 L 942.04 577.88 L 938.1 591.78 L 933.37 605.45 L 927.85 618.85 L 921.56 631.93 L 914.51 644.63 L 906.74 656.9" class="orbit-dashed"/><circle cx="700.15" cy="289.72" r="6" class="vehicle"/><path d="M 700.15 289.72 L 706.39 293.75 L 712.51 297.96 L 718.5 302.35 L 724.37 306.93 L 730.11 311.69 L 735.72 316.63 L 741.2 321.74 L 746.54 327.04 L 751.73 332.51 L 756.79 338.16 L 761.69 343.99 L 766.44 349.99 L 771.04 356.17 L 775.47 362.52 L 779.73 369.04 L 783.82 375.73 L 787.74 382.59 L 791.47 389.63 L 795.02 396.83 L 798.37 404.2 L 801.51 411.74 L 804.45 419.44 L 807.18 427.31 L 809.68 435.34 L 811.95 443.52 L 813.99 451.87 L 815.77 460.36 L 817.3 469.01 L 818.57 477.81 L 819.56 486.74 L 820.27 495.82 L 820.68 505.02 L 820.8 514.36 L 820.59 523.81 L 820.07 533.38 L 819.2 543.05 L 818 552.81 L 816.43 562.67 L 814.49 572.59 L 812.18 582.58 L 809.47 592.63 L 806.36 602.7 L 802.84 612.8 L 798.9 622.9 L 794.52 632.99 L 789.7 643.04 L 784.43 653.05 L 778.7 662.97 L 772.51 672.8 L 765.84 682.5 L 758.69 692.05 L 751.07 701.42 L 742.96 710.58 L 734.37 719.5 L 725.3 728.16 L 715.76 736.51 L 705.74 744.52 L 695.27 752.16 L 684.35 759.39 L 672.99 766.17 L 661.23 772.48 L 649.06 778.27 L 636.53 783.52 L 623.65 788.17 L 610.46 792.21 L 596.98 795.6 L 583.27 798.31 L 569.35 800.31 L 555.27 801.58 L 541.08 802.09 L 526.82 801.83 L 512.54 800.79 L 498.29 798.95 L 484.13 796.3 L 470.11 792.85 L 456.28 788.59 L 442.69 783.54 L 429.4 777.71 L 416.47 771.12 L 403.93 763.78" class="orbit-dashed"/><circle cx="612.91" cy="80.23" r="16" class="ring"/>
</svg>
