<?xml version="1.0" encoding="utf-8" standalone="no"?>
<!DOCTYPE svg PUBLIC "-//W3C//DTD SVG 1.1//EN"
  "http://www.w3.org/Graphics/SVG/1.1/DTD/svg11.dtd">
<svg xmlns:xlink="http://www.w3.org/1999/xlink" width="427.615751pt" height="413.681656pt" viewBox="0 0 427.615751 413.681656" xmlns="http://www.w3.org/2000/svg" version="1.1">
 <metadata>
  <rdf:RDF xmlns:dc="http://purl.org/dc/elements/1.1/" xmlns:cc="http://creativecommons.org/ns#" xmlns:rdf="http://www.w3.org/1999/02/22-rdf-syntax-ns#">
   <cc:Work>
    <dc:type rdf:resource="http://purl.org/dc/dcmitype/StillImage"/>
    <dc:date>2025-08-27T09:44:52.796988</dc:date>
    <dc:format>image/svg+xml</dc:format>
    <dc:creator>
     <cc:Agent>
      <dc:title>Matplotlib v3.10.5, https://matplotlib.org/</dc:title>
     </cc:Agent>
    </dc:creator>
   </cc:Work>
  </rdf:RDF>
 </metadata>
 <defs>
  <style type="text/css">*{stroke-linejoin: round; stroke-linecap: butt}</style>
 </defs>
 <g id="figure_1">
  <g id="patch_1">
   <path d="M 0 413.681656 
L 427.615751 413.681656 
L 427.615751 0 
L 0 0 
z
" style="fill: #ffffff"/>
  </g>
  <g id="axes_1">
   <g id="patch_2">
    <path d="M 380.127875 221.322594 
C 380.127875 199.481651 375.825686 177.853085 367.467519 157.674685 
C 359.109352 137.496286 346.857754 119.160472 331.413875 103.716594 
C 315.969997 88.272716 297.634183 76.021117 277.455784 67.66295 
C 257.277384 59.304783 235.648818 55.002594 213.807875 55.002594 
C 191.966933 55.002594 170.338366 59.304783 150.159967 67.66295 
C 129.981567 76.021117 111.645754 88.272716 96.201875 103.716594 
C 80.757997 119.160472 68.506398 137.496286 60.148231 157.674685 
C 51.790065 177.853085 47.487875 199.481651 47.487875 221.322594 
C 47.487875 243.163536 51.790065 264.792103 60.148231 284.970502 
C 68.506398 305.148902 80.757997 323.484715 96.201875 338.928594 
C 111.645754 354.372472 129.981567 366.624071 150.159967 374.982238 
C 170.338366 383.340404 191.966933 387.642594 213.807875 387.642594 
C 235.648818 387.642594 257.277384 383.340404 277.455784 374.982238 
C 297.634183 366.624071 315.969997 354.372472 331.413875 338.928594 
C 346.857754 323.484715 359.109352 305.148902 367.467519 284.970502 
C 375.825686 264.792103 380.127875 243.163536 380.127875 221.322594 
M 213.807875 221.322594 
C 213.807875 221.322594 213.807875 221.322594 213.807875 221.322594 
C 213.807875 221.322594 213.807875 221.322594 213.807875 221.322594 
C 213.807875 221.322594 213.807875 221.322594 213.807875 221.322594 
C 213.807875 221.322594 213.807875 221.322594 213.807875 221.322594 
C 213.807875 221.322594 213.807875 221.322594 213.807875 221.322594 
C 213.807875 221.322594 213.807875 221.322594 213.807875 221.322594 
C 213.807875 221.322594 213.807875 221.322594 213.807875 221.322594 
C 213.807875 221.322594 213.807875 221.322594 213.807875 221.322594 
C 213.807875 221.322594 213.807875 221.322594 213.807875 221.322594 
C 213.807875 221.322594 213.807875 221.322594 213.807875 221.322594 
C 213.807875 221.322594 213.807875 221.322594 213.807875 221.322594 
C 213.807875 221.322594 213.807875 221.322594 213.807875 221.322594 
C 213.807875 221.322594 213.807875 221.322594 213.807875 221.322594 
C 213.807875 221.322594 213.807875 221.322594 213.807875 221.322594 
C 213.807875 221.322594 213.807875 221.322594 213.807875 221.322594 
C 213.807875 221.322594 213.807875 221.322594 213.807875 221.322594 
z
" style="fill: #ffffff"/>
   </g>
   <g id="matplotlib.axis_1">
    <g id="xtick_1">
     <g id="line2d_1">
      <path d="M 213.807875 221.322594 
L 380.127875 221.322594 
" clip-path="url(#pad998b8731)" style="fill: none; stroke: #b0b0b0; stroke-width: 0.8; stroke-linecap: square"/>
     </g>
     <g id="text_1">
      <!-- 0° -->
      <g transform="translate(388.446625 224.081969) scale(0.1 -0.1)">
       <defs>
        <path id="DejaVuSans-30" d="M 2034 4250 
Q 1547 4250 1301 3770 
Q 1056 3291 1056 2328 
Q 1056 1369 1301 889 
Q 1547 409 2034 409 
Q 2525 409 2770 889 
Q 3016 1369 3016 2328 
Q 3016 3291 2770 3770 
Q 2525 4250 2034 4250 
z
M 2034 4750 
Q 2819 4750 3233 4129 
Q 3647 3509 3647 2328 
Q 3647 1150 3233 529 
Q 2819 -91 2034 -91 
Q 1250 -91 836 529 
Q 422 1150 422 2328 
Q 422 3509 836 4129 
Q 1250 4750 2034 4750 
z
" transform="scale(0.015625)"/>
        <path id="DejaVuSans-b0" d="M 1600 4347 
Q 1350 4347 1178 4173 
Q 1006 4000 1006 3750 
Q 1006 3503 1178 3333 
Q 1350 3163 1600 3163 
Q 1850 3163 2022 3333 
Q 2194 3503 2194 3750 
Q 2194 3997 2020 4172 
Q 1847 4347 1600 4347 
z
M 1600 4750 
Q 1800 4750 1984 4673 
Q 2169 4597 2303 4453 
Q 2447 4313 2519 4134 
Q 2591 3956 2591 3750 
Q 2591 3338 2302 3052 
Q 2013 2766 1594 2766 
Q 1172 2766 890 3047 
Q 609 3328 609 3750 
Q 609 4169 896 4459 
Q 1184 4750 1600 4750 
z
" transform="scale(0.015625)"/>
       </defs>
       <use xlink:href="#DejaVuSans-30"/>
       <use xlink:href="#DejaVuSans-b0" transform="translate(63.623047 0)"/>
      </g>
     </g>
    </g>
    <g id="xtick_2">
     <g id="line2d_2">
      <path d="M 213.807875 221.322594 
L 331.413875 338.928594 
" clip-path="url(#pad998b8731)" style="fill: none; stroke: #b0b0b0; stroke-width: 0.8; stroke-linecap: square"/>
     </g>
     <g id="text_2">
      <!-- 45° -->
      <g transform="translate(332.45087 351.587464) scale(0.1 -0.1)">
       <defs>
        <path id="DejaVuSans-34" d="M 2419 4116 
L 825 1625 
L 2419 1625 
L 2419 4116 
z
M 2253 4666 
L 3047 4666 
L 3047 1625 
L 3713 1625 
L 3713 1100 
L 3047 1100 
L 3047 0 
L 2419 0 
L 2419 1100 
L 313 1100 
L 313 1709 
L 2253 4666 
z
" transform="scale(0.015625)"/>
        <path id="DejaVuSans-35" d="M 691 4666 
L 3169 4666 
L 3169 4134 
L 1269 4134 
L 1269 2991 
Q 1406 3038 1543 3061 
Q 1681 3084 1819 3084 
Q 2600 3084 3056 2656 
Q 3513 2228 3513 1497 
Q 3513 744 3044 326 
Q 2575 -91 1722 -91 
Q 1428 -91 1123 -41 
Q 819 9 494 109 
L 494 744 
Q 775 591 1075 516 
Q 1375 441 1709 441 
Q 2250 441 2565 725 
Q 2881 1009 2881 1497 
Q 2881 1984 2565 2268 
Q 2250 2553 1709 2553 
Q 1456 2553 1204 2497 
Q 953 2441 691 2322 
L 691 4666 
z
" transform="scale(0.015625)"/>
       </defs>
       <use xlink:href="#DejaVuSans-34"/>
       <use xlink:href="#DejaVuSans-35" transform="translate(63.623047 0)"/>
       <use xlink:href="#DejaVuSans-b0" transform="translate(127.246094 0)"/>
      </g>
     </g>
    </g>
    <g id="xtick_3">
     <g id="line2d_3">
      <path d="M 213.807875 221.322594 
L 213.807875 387.642594 
" clip-path="url(#pad998b8731)" style="fill: none; stroke: #b0b0b0; stroke-width: 0.8; stroke-linecap: square"/>
     </g>
     <g id="text_3">
      <!-- 90° -->
      <g transform="translate(204.945375 404.401969) scale(0.1 -0.1)">
       <defs>
        <path id="DejaVuSans-39" d="M 703 97 
L 703 672 
Q 941 559 1184 500 
Q 1428 441 1663 441 
Q 2288 441 2617 861 
Q 2947 1281 2994 2138 
Q 2813 1869 2534 1725 
Q 2256 1581 1919 1581 
Q 1219 1581 811 2004 
Q 403 2428 403 3163 
Q 403 3881 828 4315 
Q 1253 4750 1959 4750 
Q 2769 4750 3195 4129 
Q 3622 3509 3622 2328 
Q 3622 1225 3098 567 
Q 2575 -91 1691 -91 
Q 1453 -91 1209 -44 
Q 966 3 703 97 
z
M 1959 2075 
Q 2384 2075 2632 2365 
Q 2881 2656 2881 3163 
Q 2881 3666 2632 3958 
Q 2384 4250 1959 4250 
Q 1534 4250 1286 3958 
Q 1038 3666 1038 3163 
Q 1038 2656 1286 2365 
Q 1534 2075 1959 2075 
z
" transform="scale(0.015625)"/>
       </defs>
       <use xlink:href="#DejaVuSans-39"/>
       <use xlink:href="#DejaVuSans-30" transform="translate(63.623047 0)"/>
       <use xlink:href="#DejaVuSans-b0" transform="translate(127.246094 0)"/>
      </g>
     </g>
    </g>
    <g id="xtick_4">
     <g id="line2d_4">
      <path d="M 213.807875 221.322594 
L 96.201875 338.928594 
" clip-path="url(#pad998b8731)" style="fill: none; stroke: #b0b0b0; stroke-width: 0.8; stroke-linecap: square"/>
     </g>
     <g id="text_4">
      <!-- 135° -->
      <g transform="translate(74.25863 351.587464) scale(0.1 -0.1)">
       <defs>
        <path id="DejaVuSans-31" d="M 794 531 
L 1825 531 
L 1825 4091 
L 703 3866 
L 703 4441 
L 1819 4666 
L 2450 4666 
L 2450 531 
L 3481 531 
L 3481 0 
L 794 0 
L 794 531 
z
" transform="scale(0.015625)"/>
        <path id="DejaVuSans-33" d="M 2597 2516 
Q 3050 2419 3304 2112 
Q 3559 1806 3559 1356 
Q 3559 666 3084 287 
Q 2609 -91 1734 -91 
Q 1441 -91 1130 -33 
Q 819 25 488 141 
L 488 750 
Q 750 597 1062 519 
Q 1375 441 1716 441 
Q 2309 441 2620 675 
Q 2931 909 2931 1356 
Q 2931 1769 2642 2001 
Q 2353 2234 1838 2234 
L 1294 2234 
L 1294 2753 
L 1863 2753 
Q 2328 2753 2575 2939 
Q 2822 3125 2822 3475 
Q 2822 3834 2567 4026 
Q 2313 4219 1838 4219 
Q 1578 4219 1281 4162 
Q 984 4106 628 3988 
L 628 4550 
Q 988 4650 1302 4700 
Q 1616 4750 1894 4750 
Q 2613 4750 3031 4423 
Q 3450 4097 3450 3541 
Q 3450 3153 3228 2886 
Q 3006 2619 2597 2516 
z
" transform="scale(0.015625)"/>
       </defs>
       <use xlink:href="#DejaVuSans-31"/>
       <use xlink:href="#DejaVuSans-33" transform="translate(63.623047 0)"/>
       <use xlink:href="#DejaVuSans-35" transform="translate(127.246094 0)"/>
       <use xlink:href="#DejaVuSans-b0" transform="translate(190.869141 0)"/>
      </g>
     </g>
    </g>
    <g id="xtick_5">
     <g id="line2d_5">
      <path d="M 213.807875 221.322594 
L 47.487875 221.322594 
" clip-path="url(#pad998b8731)" style="fill: none; stroke: #b0b0b0; stroke-width: 0.8; stroke-linecap: square"/>
     </g>
     <g id="text_5">
      <!-- 180° -->
      <g transform="translate(21.444125 224.081969) scale(0.1 -0.1)">
       <defs>
        <path id="DejaVuSans-38" d="M 2034 2216 
Q 1584 2216 1326 1975 
Q 1069 1734 1069 1313 
Q 1069 891 1326 650 
Q 1584 409 2034 409 
Q 2484 409 2743 651 
Q 3003 894 3003 1313 
Q 3003 1734 2745 1975 
Q 2488 2216 2034 2216 
z
M 1403 2484 
Q 997 2584 770 2862 
Q 544 3141 544 3541 
Q 544 4100 942 4425 
Q 1341 4750 2034 4750 
Q 2731 4750 3128 4425 
Q 3525 4100 3525 3541 
Q 3525 3141 3298 2862 
Q 3072 2584 2669 2484 
Q 3125 2378 3379 2068 
Q 3634 1759 3634 1313 
Q 3634 634 3220 271 
Q 2806 -91 2034 -91 
Q 1263 -91 848 271 
Q 434 634 434 1313 
Q 434 1759 690 2068 
Q 947 2378 1403 2484 
z
M 1172 3481 
Q 1172 3119 1398 2916 
Q 1625 2713 2034 2713 
Q 2441 2713 2670 2916 
Q 2900 3119 2900 3481 
Q 2900 3844 2670 4047 
Q 2441 4250 2034 4250 
Q 1625 4250 1398 4047 
Q 1172 3844 1172 3481 
z
" transform="scale(0.015625)"/>
       </defs>
       <use xlink:href="#DejaVuSans-31"/>
       <use xlink:href="#DejaVuSans-38" transform="translate(63.623047 0)"/>
       <use xlink:href="#DejaVuSans-30" transform="translate(127.246094 0)"/>
       <use xlink:href="#DejaVuSans-b0" transform="translate(190.869141 0)"/>
      </g>
     </g>
    </g>
    <g id="xtick_6">
     <g id="line2d_6">
      <path d="M 213.807875 221.322594 
L 96.201875 103.716594 
" clip-path="url(#pad998b8731)" style="fill: none; stroke: #b0b0b0; stroke-width: 0.8; stroke-linecap: square"/>
     </g>
     <g id="text_6">
      <!-- 225° -->
      <g transform="translate(74.25863 96.576474) scale(0.1 -0.1)">
       <defs>
        <path id="DejaVuSans-32" d="M 1228 531 
L 3431 531 
L 3431 0 
L 469 0 
L 469 531 
Q 828 903 1448 1529 
Q 2069 2156 2228 2338 
Q 2531 2678 2651 2914 
Q 2772 3150 2772 3378 
Q 2772 3750 2511 3984 
Q 2250 4219 1831 4219 
Q 1534 4219 1204 4116 
Q 875 4013 500 3803 
L 500 4441 
Q 881 4594 1212 4672 
Q 1544 4750 1819 4750 
Q 2544 4750 2975 4387 
Q 3406 4025 3406 3419 
Q 3406 3131 3298 2873 
Q 3191 2616 2906 2266 
Q 2828 2175 2409 1742 
Q 1991 1309 1228 531 
z
" transform="scale(0.015625)"/>
       </defs>
       <use xlink:href="#DejaVuSans-32"/>
       <use xlink:href="#DejaVuSans-32" transform="translate(63.623047 0)"/>
       <use xlink:href="#DejaVuSans-35" transform="translate(127.246094 0)"/>
       <use xlink:href="#DejaVuSans-b0" transform="translate(190.869141 0)"/>
      </g>
     </g>
    </g>
    <g id="xtick_7">
     <g id="line2d_7">
      <path d="M 213.807875 221.322594 
L 213.807875 55.002594 
" clip-path="url(#pad998b8731)" style="fill: none; stroke: #b0b0b0; stroke-width: 0.8; stroke-linecap: square"/>
     </g>
     <g id="text_7">
      <!-- 270° -->
      <g transform="translate(201.764125 43.761969) scale(0.1 -0.1)">
       <defs>
        <path id="DejaVuSans-37" d="M 525 4666 
L 3525 4666 
L 3525 4397 
L 1831 0 
L 1172 0 
L 2766 4134 
L 525 4134 
L 525 4666 
z
" transform="scale(0.015625)"/>
       </defs>
       <use xlink:href="#DejaVuSans-32"/>
       <use xlink:href="#DejaVuSans-37" transform="translate(63.623047 0)"/>
       <use xlink:href="#DejaVuSans-30" transform="translate(127.246094 0)"/>
       <use xlink:href="#DejaVuSans-b0" transform="translate(190.869141 0)"/>
      </g>
     </g>
    </g>
    <g id="xtick_8">
     <g id="line2d_8">
      <path d="M 213.807875 221.322594 
L 331.413875 103.716594 
" clip-path="url(#pad998b8731)" style="fill: none; stroke: #b0b0b0; stroke-width: 0.8; stroke-linecap: square"/>
     </g>
     <g id="text_8">
      <!-- 315° -->
      <g transform="translate(329.26962 96.576474) scale(0.1 -0.1)">
       <use xlink:href="#DejaVuSans-33"/>
       <use xlink:href="#DejaVuSans-31" transform="translate(63.623047 0)"/>
       <use xlink:href="#DejaVuSans-35" transform="translate(127.246094 0)"/>
       <use xlink:href="#DejaVuSans-b0" transform="translate(190.869141 0)"/>
      </g>
     </g>
    </g>
   </g>
   <g id="matplotlib.axis_2">
    <g id="ytick_1">
     <g id="line2d_9">
      <path d="M 322.87017 221.322594 
C 322.87017 235.644523 320.049063 249.82719 314.568297 263.058927 
C 309.087532 276.290665 301.053697 288.314149 290.926564 298.441282 
C 280.79943 308.568416 268.775946 316.602251 255.544209 322.083016 
C 242.312471 327.563781 228.129805 330.384889 213.807875 330.384889 
C 199.485946 330.384889 185.303279 327.563781 172.071542 322.083016 
C 158.839804 316.602251 146.81632 308.568416 136.689187 298.441282 
C 126.562053 288.314149 118.528218 276.290665 113.047453 263.058927 
C 107.566688 249.82719 104.74558 235.644523 104.74558 221.322594 
C 104.74558 207.000664 107.566688 192.817998 113.047453 179.58626 
C 118.528218 166.354523 126.562053 154.331039 136.689187 144.203905 
C 146.81632 134.076772 158.839804 126.042937 172.071542 120.562172 
C 185.303279 115.081406 199.485946 112.260299 213.807875 112.260299 
C 228.129805 112.260299 242.312471 115.081406 255.544209 120.562172 
C 268.775946 126.042937 280.79943 134.076772 290.926564 144.203905 
C 301.053697 154.331039 309.087532 166.354523 314.568297 179.58626 
C 320.049063 192.817998 322.87017 207.000664 322.87017 221.322594 
" clip-path="url(#pad998b8731)" style="fill: none; stroke: #b0b0b0; stroke-width: 0.8; stroke-linecap: square"/>
     </g>
     <g id="text_9">
      <!-- R_small -->
      <g transform="translate(136.689187 296.08347) scale(0.1 -0.1)">
       <defs>
        <path id="DejaVuSans-52" d="M 2841 2188 
Q 3044 2119 3236 1894 
Q 3428 1669 3622 1275 
L 4263 0 
L 3584 0 
L 2988 1197 
Q 2756 1666 2539 1819 
Q 2322 1972 1947 1972 
L 1259 1972 
L 1259 0 
L 628 0 
L 628 4666 
L 2053 4666 
Q 2853 4666 3247 4331 
Q 3641 3997 3641 3322 
Q 3641 2881 3436 2590 
Q 3231 2300 2841 2188 
z
M 1259 4147 
L 1259 2491 
L 2053 2491 
Q 2509 2491 2742 2702 
Q 2975 2913 2975 3322 
Q 2975 3731 2742 3939 
Q 2509 4147 2053 4147 
L 1259 4147 
z
" transform="scale(0.015625)"/>
        <path id="DejaVuSans-5f" d="M 3263 -1063 
L 3263 -1509 
L -63 -1509 
L -63 -1063 
L 3263 -1063 
z
" transform="scale(0.015625)"/>
        <path id="DejaVuSans-73" d="M 2834 3397 
L 2834 2853 
Q 2591 2978 2328 3040 
Q 2066 3103 1784 3103 
Q 1356 3103 1142 2972 
Q 928 2841 928 2578 
Q 928 2378 1081 2264 
Q 1234 2150 1697 2047 
L 1894 2003 
Q 2506 1872 2764 1633 
Q 3022 1394 3022 966 
Q 3022 478 2636 193 
Q 2250 -91 1575 -91 
Q 1294 -91 989 -36 
Q 684 19 347 128 
L 347 722 
Q 666 556 975 473 
Q 1284 391 1588 391 
Q 1994 391 2212 530 
Q 2431 669 2431 922 
Q 2431 1156 2273 1281 
Q 2116 1406 1581 1522 
L 1381 1569 
Q 847 1681 609 1914 
Q 372 2147 372 2553 
Q 372 3047 722 3315 
Q 1072 3584 1716 3584 
Q 2034 3584 2315 3537 
Q 2597 3491 2834 3397 
z
" transform="scale(0.015625)"/>
        <path id="DejaVuSans-6d" d="M 3328 2828 
Q 3544 3216 3844 3400 
Q 4144 3584 4550 3584 
Q 5097 3584 5394 3201 
Q 5691 2819 5691 2113 
L 5691 0 
L 5113 0 
L 5113 2094 
Q 5113 2597 4934 2840 
Q 4756 3084 4391 3084 
Q 3944 3084 3684 2787 
Q 3425 2491 3425 1978 
L 3425 0 
L 2847 0 
L 2847 2094 
Q 2847 2600 2669 2842 
Q 2491 3084 2119 3084 
Q 1678 3084 1418 2786 
Q 1159 2488 1159 1978 
L 1159 0 
L 581 0 
L 581 3500 
L 1159 3500 
L 1159 2956 
Q 1356 3278 1631 3431 
Q 1906 3584 2284 3584 
Q 2666 3584 2933 3390 
Q 3200 3197 3328 2828 
z
" transform="scale(0.015625)"/>
        <path id="DejaVuSans-61" d="M 2194 1759 
Q 1497 1759 1228 1600 
Q 959 1441 959 1056 
Q 959 750 1161 570 
Q 1363 391 1709 391 
Q 2188 391 2477 730 
Q 2766 1069 2766 1631 
L 2766 1759 
L 2194 1759 
z
M 3341 1997 
L 3341 0 
L 2766 0 
L 2766 531 
Q 2569 213 2275 61 
Q 1981 -91 1556 -91 
Q 1019 -91 701 211 
Q 384 513 384 1019 
Q 384 1609 779 1909 
Q 1175 2209 1959 2209 
L 2766 2209 
L 2766 2266 
Q 2766 2663 2505 2880 
Q 2244 3097 1772 3097 
Q 1472 3097 1187 3025 
Q 903 2953 641 2809 
L 641 3341 
Q 956 3463 1253 3523 
Q 1550 3584 1831 3584 
Q 2591 3584 2966 3190 
Q 3341 2797 3341 1997 
z
" transform="scale(0.015625)"/>
        <path id="DejaVuSans-6c" d="M 603 4863 
L 1178 4863 
L 1178 0 
L 603 0 
L 603 4863 
z
" transform="scale(0.015625)"/>
       </defs>
       <use xlink:href="#DejaVuSans-52"/>
       <use xlink:href="#DejaVuSans-5f" transform="translate(69.482422 0)"/>
       <use xlink:href="#DejaVuSans-73" transform="translate(119.482422 0)"/>
       <use xlink:href="#DejaVuSans-6d" transform="translate(171.582031 0)"/>
       <use xlink:href="#DejaVuSans-61" transform="translate(268.994141 0)"/>
       <use xlink:href="#DejaVuSans-6c" transform="translate(330.273438 0)"/>
       <use xlink:href="#DejaVuSans-6c" transform="translate(358.056641 0)"/>
      </g>
     </g>
    </g>
    <g id="ytick_2">
     <g id="line2d_10">
      <path d="M 377.401318 221.322594 
C 377.401318 242.805488 373.169656 264.079488 364.948509 283.927094 
C 356.727361 303.7747 344.676608 321.809926 329.485908 337.000626 
C 314.295208 352.191326 296.259982 364.242079 276.412375 372.463227 
C 256.564769 380.684375 235.290769 384.916036 213.807875 384.916036 
C 192.324981 384.916036 171.050981 380.684375 151.203375 372.463227 
C 131.355769 364.242079 113.320543 352.191326 98.129843 337.000626 
C 82.939143 321.809926 70.88839 303.7747 62.667242 283.927094 
C 54.446094 264.079488 50.214433 242.805488 50.214433 221.322594 
C 50.214433 199.8397 54.446094 178.5657 62.667242 158.718094 
C 70.88839 138.870488 82.939143 120.835261 98.129843 105.644561 
C 113.320543 90.453861 131.355769 78.403108 151.203375 70.18196 
C 171.050981 61.960813 192.324981 57.729151 213.807875 57.729151 
C 235.290769 57.729151 256.564769 61.960813 276.412375 70.18196 
C 296.259982 78.403108 314.295208 90.453861 329.485908 105.644561 
C 344.676608 120.835261 356.727361 138.870488 364.948509 158.718094 
C 373.169656 178.5657 377.401318 199.8397 377.401318 221.322594 
" clip-path="url(#pad998b8731)" style="fill: none; stroke: #b0b0b0; stroke-width: 0.8; stroke-linecap: square"/>
     </g>
     <g id="text_10">
      <!-- R_big -->
      <g transform="translate(98.129843 334.642814) scale(0.1 -0.1)">
       <defs>
        <path id="DejaVuSans-62" d="M 3116 1747 
Q 3116 2381 2855 2742 
Q 2594 3103 2138 3103 
Q 1681 3103 1420 2742 
Q 1159 2381 1159 1747 
Q 1159 1113 1420 752 
Q 1681 391 2138 391 
Q 2594 391 2855 752 
Q 3116 1113 3116 1747 
z
M 1159 2969 
Q 1341 3281 1617 3432 
Q 1894 3584 2278 3584 
Q 2916 3584 3314 3078 
Q 3713 2572 3713 1747 
Q 3713 922 3314 415 
Q 2916 -91 2278 -91 
Q 1894 -91 1617 61 
Q 1341 213 1159 525 
L 1159 0 
L 581 0 
L 581 4863 
L 1159 4863 
L 1159 2969 
z
" transform="scale(0.015625)"/>
        <path id="DejaVuSans-69" d="M 603 3500 
L 1178 3500 
L 1178 0 
L 603 0 
L 603 3500 
z
M 603 4863 
L 1178 4863 
L 1178 4134 
L 603 4134 
L 603 4863 
z
" transform="scale(0.015625)"/>
        <path id="DejaVuSans-67" d="M 2906 1791 
Q 2906 2416 2648 2759 
Q 2391 3103 1925 3103 
Q 1463 3103 1205 2759 
Q 947 2416 947 1791 
Q 947 1169 1205 825 
Q 1463 481 1925 481 
Q 2391 481 2648 825 
Q 2906 1169 2906 1791 
z
M 3481 434 
Q 3481 -459 3084 -895 
Q 2688 -1331 1869 -1331 
Q 1566 -1331 1297 -1286 
Q 1028 -1241 775 -1147 
L 775 -588 
Q 1028 -725 1275 -790 
Q 1522 -856 1778 -856 
Q 2344 -856 2625 -561 
Q 2906 -266 2906 331 
L 2906 616 
Q 2728 306 2450 153 
Q 2172 0 1784 0 
Q 1141 0 747 490 
Q 353 981 353 1791 
Q 353 2603 747 3093 
Q 1141 3584 1784 3584 
Q 2172 3584 2450 3431 
Q 2728 3278 2906 2969 
L 2906 3500 
L 3481 3500 
L 3481 434 
z
" transform="scale(0.015625)"/>
       </defs>
       <use xlink:href="#DejaVuSans-52"/>
       <use xlink:href="#DejaVuSans-5f" transform="translate(69.482422 0)"/>
       <use xlink:href="#DejaVuSans-62" transform="translate(119.482422 0)"/>
       <use xlink:href="#DejaVuSans-69" transform="translate(182.958984 0)"/>
       <use xlink:href="#DejaVuSans-67" transform="translate(210.742188 0)"/>
      </g>
     </g>
    </g>
   </g>
   <g id="line2d_11">
    <path d="M 377.401318 221.322594 
L 377.301661 227.031923 
L 377.002812 232.734295 
L 376.505136 238.422765 
L 375.809238 244.0904 
L 374.915966 249.730297 
L 373.826409 255.335583 
L 372.541893 260.899429 
L 371.063985 266.415058 
L 369.394485 271.875748 
L 367.535426 277.274846 
L 365.489074 282.605776 
L 363.257922 287.862041 
L 360.844687 293.037239 
L 358.252312 298.125063 
L 355.483952 303.119315 
L 352.542983 308.01391 
L 349.432986 312.802886 
L 346.157751 317.480407 
L 342.721267 322.040774 
L 339.127723 326.478432 
L 335.381496 330.787973 
L 331.48715 334.964148 
L 329.485908 337.000626 
L 289.568911 299.775443 
L 285.359179 303.632953 
L 280.953329 307.264855 
L 276.363438 310.661196 
L 271.602086 313.812665 
L 266.682325 316.710626 
L 261.617639 319.347135 
L 256.421909 321.714966 
L 251.109377 323.807628 
L 245.694604 325.619385 
L 240.192432 327.145273 
L 234.617942 328.381107 
L 228.986413 329.323502 
L 223.313281 329.969874 
L 217.614094 330.318451 
L 211.904476 330.368278 
L 206.200074 330.119219 
L 200.516525 329.571955 
L 194.869406 328.727988 
L 189.274197 327.589629 
L 183.746233 326.16 
L 178.300665 324.44302 
L 172.95242 322.443393 
L 167.716158 320.166601 
L 162.606229 317.618885 
L 157.636641 314.807227 
L 152.821014 311.739334 
L 148.172548 308.423615 
L 143.703983 304.869159 
L 139.427569 301.085707 
L 138.046839 299.775443 
L 98.129843 337.000626 
L 94.163205 332.893053 
L 90.342337 328.649549 
L 86.671892 324.275283 
L 83.156343 319.775585 
L 79.799972 315.155938 
L 76.60687 310.421968 
L 73.580926 305.579446 
L 70.725826 300.634269 
L 68.045051 295.592463 
L 65.541864 290.46017 
L 63.219317 285.243644 
L 61.080239 279.94924 
L 59.127236 274.583409 
L 57.362688 269.152687 
L 55.788744 263.663692 
L 54.407322 258.123111 
L 53.220105 252.537694 
L 52.228539 246.914246 
L 51.433833 241.259619 
L 50.836955 235.580702 
L 50.438632 229.884413 
L 50.239349 224.177693 
L 50.239349 218.467494 
L 50.438632 212.760774 
L 50.836955 207.064486 
L 51.433833 201.385568 
L 52.228539 195.730941 
L 53.220105 190.107493 
L 54.407322 184.522076 
L 55.788744 178.981495 
L 57.362688 173.4925 
L 59.127236 168.061779 
L 61.080239 162.695947 
L 63.219317 157.401543 
L 65.541864 152.185017 
L 68.045051 147.052725 
L 70.725826 142.010919 
L 73.580926 137.065742 
L 76.60687 132.223219 
L 79.799972 127.48925 
L 83.156343 122.869602 
L 86.671892 118.369904 
L 90.342337 113.995639 
L 94.163205 109.752134 
L 98.129843 105.644561 
L 138.046839 142.869744 
L 142.256572 139.012235 
L 146.662422 135.380332 
L 151.252313 131.983992 
L 156.013664 128.832522 
L 160.933425 125.934561 
L 165.998112 123.298052 
L 171.193842 120.930222 
L 176.506373 118.83756 
L 181.921146 117.025802 
L 187.423318 115.499915 
L 192.997808 114.26408 
L 198.629337 113.321685 
L 204.30247 112.675314 
L 210.001656 112.326736 
L 215.711275 112.276909 
L 221.415676 112.525969 
L 227.099226 113.073232 
L 232.746344 113.9172 
L 238.341554 115.055558 
L 243.869518 116.485187 
L 249.315085 118.202168 
L 254.66333 120.201795 
L 259.899593 122.478586 
L 265.009521 125.026303 
L 269.97911 127.837961 
L 274.794737 130.905853 
L 279.443203 134.221572 
L 283.911767 137.776029 
L 288.188182 141.559481 
L 289.568911 142.869744 
L 329.485908 105.644561 
L 333.452545 109.752134 
L 337.273414 113.995639 
L 340.943859 118.369904 
L 344.459408 122.869602 
L 347.815778 127.48925 
L 351.008881 132.223219 
L 354.034825 137.065742 
L 356.889924 142.010919 
L 359.5707 147.052725 
L 362.073886 152.185017 
L 364.396433 157.401543 
L 366.535511 162.695947 
L 368.488514 168.061779 
L 370.253062 173.4925 
L 371.827006 178.981495 
L 373.208429 184.522076 
L 374.395646 190.107493 
L 375.387211 195.730941 
L 376.181917 201.385568 
L 376.778795 207.064486 
L 377.177119 212.760774 
L 377.376402 218.467494 
L 377.401318 221.322594 
L 377.401318 221.322594 
" clip-path="url(#pad998b8731)" style="fill: none; stroke: #1f77b4; stroke-width: 2.5; stroke-linecap: square"/>
   </g>
   <g id="line2d_12">
    <path d="M 377.401318 221.322594 
" clip-path="url(#pad998b8731)" style="fill: none; stroke: #ff7f0e; stroke-width: 1.5; stroke-linecap: square"/>
    <defs>
     <path id="ma3cf8024f0" d="M 0 3 
C 0.795609 3 1.55874 2.683901 2.12132 2.12132 
C 2.683901 1.55874 3 0.795609 3 0 
C 3 -0.795609 2.683901 -1.55874 2.12132 -2.12132 
C 1.55874 -2.683901 0.795609 -3 0 -3 
C -0.795609 -3 -1.55874 -2.683901 -2.12132 -2.12132 
C -2.683901 -1.55874 -3 -0.795609 -3 0 
C -3 0.795609 -2.683901 1.55874 -2.12132 2.12132 
C -1.55874 2.683901 -0.795609 3 0 3 
z
" style="stroke: #ff7f0e"/>
    </defs>
    <g clip-path="url(#pad998b8731)">
     <use xlink:href="#ma3cf8024f0" x="377.401318" y="221.322594" style="fill: #ff7f0e; stroke: #ff7f0e"/>
    </g>
   </g>
   <g id="line2d_13">
    <path d="M 50.214433 221.322594 
" clip-path="url(#pad998b8731)" style="fill: none; stroke: #2ca02c; stroke-width: 1.5; stroke-linecap: square"/>
    <defs>
     <path id="m3b231674ce" d="M 0 3 
C 0.795609 3 1.55874 2.683901 2.12132 2.12132 
C 2.683901 1.55874 3 0.795609 3 0 
C 3 -0.795609 2.683901 -1.55874 2.12132 -2.12132 
C 1.55874 -2.683901 0.795609 -3 0 -3 
C -0.795609 -3 -1.55874 -2.683901 -2.12132 -2.12132 
C -2.683901 -1.55874 -3 -0.795609 -3 0 
C -3 0.795609 -2.683901 1.55874 -2.12132 2.12132 
C -1.55874 2.683901 -0.795609 3 0 3 
z
" style="stroke: #2ca02c"/>
    </defs>
    <g clip-path="url(#pad998b8731)">
     <use xlink:href="#m3b231674ce" x="50.214433" y="221.322594" style="fill: #2ca02c; stroke: #2ca02c"/>
    </g>
   </g>
   <g id="line2d_14">
    <path d="M 213.807875 330.384889 
" clip-path="url(#pad998b8731)" style="fill: none; stroke: #d62728; stroke-width: 1.5; stroke-linecap: square"/>
    <defs>
     <path id="mf4bc8f439e" d="M 0 3 
C 0.795609 3 1.55874 2.683901 2.12132 2.12132 
C 2.683901 1.55874 3 0.795609 3 0 
C 3 -0.795609 2.683901 -1.55874 2.12132 -2.12132 
C 1.55874 -2.683901 0.795609 -3 0 -3 
C -0.795609 -3 -1.55874 -2.683901 -2.12132 -2.12132 
C -2.683901 -1.55874 -3 -0.795609 -3 0 
C -3 0.795609 -2.683901 1.55874 -2.12132 2.12132 
C -1.55874 2.683901 -0.795609 3 0 3 
z
" style="stroke: #d62728"/>
    </defs>
    <g clip-path="url(#pad998b8731)">
     <use xlink:href="#mf4bc8f439e" x="213.807875" y="330.384889" style="fill: #d62728; stroke: #d62728"/>
    </g>
   </g>
   <g id="line2d_15">
    <path d="M 213.807875 112.260299 
" clip-path="url(#pad998b8731)" style="fill: none; stroke: #9467bd; stroke-width: 1.5; stroke-linecap: square"/>
    <defs>
     <path id="m81561da48d" d="M 0 3 
C 0.795609 3 1.55874 2.683901 2.12132 2.12132 
C 2.683901 1.55874 3 0.795609 3 0 
C 3 -0.795609 2.683901 -1.55874 2.12132 -2.12132 
C 1.55874 -2.683901 0.795609 -3 0 -3 
C -0.795609 -3 -1.55874 -2.683901 -2.12132 -2.12132 
C -2.683901 -1.55874 -3 -0.795609 -3 0 
C -3 0.795609 -2.683901 1.55874 -2.12132 2.12132 
C -1.55874 2.683901 -0.795609 3 0 3 
z
" style="stroke: #9467bd"/>
    </defs>
    <g clip-path="url(#pad998b8731)">
     <use xlink:href="#m81561da48d" x="213.807875" y="112.260299" style="fill: #9467bd; stroke: #9467bd"/>
    </g>
   </g>
   <g id="patch_3">
    <path d="M 380.127875 221.322594 
C 380.127875 199.481651 375.825686 177.853085 367.467519 157.674685 
C 359.109352 137.496286 346.857754 119.160472 331.413875 103.716594 
C 315.969997 88.272716 297.634183 76.021117 277.455784 67.66295 
C 257.277384 59.304783 235.648818 55.002594 213.807875 55.002594 
C 191.966933 55.002594 170.338366 59.304783 150.159967 67.66295 
C 129.981567 76.021117 111.645754 88.272716 96.201875 103.716594 
C 80.757997 119.160472 68.506398 137.496286 60.148231 157.674685 
C 51.790065 177.853085 47.487875 199.481651 47.487875 221.322594 
C 47.487875 243.163536 51.790065 264.792103 60.148231 284.970502 
C 68.506398 305.148902 80.757997 323.484715 96.201875 338.928594 
C 111.645754 354.372472 129.981567 366.624071 150.159967 374.982238 
C 170.338366 383.340404 191.966933 387.642594 213.807875 387.642594 
C 235.648818 387.642594 257.277384 383.340404 277.455784 374.982238 
C 297.634183 366.624071 315.969997 354.372472 331.413875 338.928594 
C 346.857754 323.484715 359.109352 305.148902 367.467519 284.970502 
C 375.825686 264.792103 380.127875 243.163536 380.127875 221.322594 
" style="fill: none; stroke: #000000; stroke-width: 0.8; stroke-linejoin: miter; stroke-linecap: square"/>
   </g>
   <g id="text_11">
    <!-- extend (Δℓ&gt;0) -->
    <g transform="translate(356.199344 209.372844) scale(0.09 -0.09)">
     <defs>
      <path id="DejaVuSans-65" d="M 3597 1894 
L 3597 1613 
L 953 1613 
Q 991 1019 1311 708 
Q 1631 397 2203 397 
Q 2534 397 2845 478 
Q 3156 559 3463 722 
L 3463 178 
Q 3153 47 2828 -22 
Q 2503 -91 2169 -91 
Q 1331 -91 842 396 
Q 353 884 353 1716 
Q 353 2575 817 3079 
Q 1281 3584 2069 3584 
Q 2775 3584 3186 3129 
Q 3597 2675 3597 1894 
z
M 3022 2063 
Q 3016 2534 2758 2815 
Q 2500 3097 2075 3097 
Q 1594 3097 1305 2825 
Q 1016 2553 972 2059 
L 3022 2063 
z
" transform="scale(0.015625)"/>
      <path id="DejaVuSans-78" d="M 3513 3500 
L 2247 1797 
L 3578 0 
L 2900 0 
L 1881 1375 
L 863 0 
L 184 0 
L 1544 1831 
L 300 3500 
L 978 3500 
L 1906 2253 
L 2834 3500 
L 3513 3500 
z
" transform="scale(0.015625)"/>
      <path id="DejaVuSans-74" d="M 1172 4494 
L 1172 3500 
L 2356 3500 
L 2356 3053 
L 1172 3053 
L 1172 1153 
Q 1172 725 1289 603 
Q 1406 481 1766 481 
L 2356 481 
L 2356 0 
L 1766 0 
Q 1100 0 847 248 
Q 594 497 594 1153 
L 594 3053 
L 172 3053 
L 172 3500 
L 594 3500 
L 594 4494 
L 1172 4494 
z
" transform="scale(0.015625)"/>
      <path id="DejaVuSans-6e" d="M 3513 2113 
L 3513 0 
L 2938 0 
L 2938 2094 
Q 2938 2591 2744 2837 
Q 2550 3084 2163 3084 
Q 1697 3084 1428 2787 
Q 1159 2491 1159 1978 
L 1159 0 
L 581 0 
L 581 3500 
L 1159 3500 
L 1159 2956 
Q 1366 3272 1645 3428 
Q 1925 3584 2291 3584 
Q 2894 3584 3203 3211 
Q 3513 2838 3513 2113 
z
" transform="scale(0.015625)"/>
      <path id="DejaVuSans-64" d="M 2906 2969 
L 2906 4863 
L 3481 4863 
L 3481 0 
L 2906 0 
L 2906 525 
Q 2725 213 2448 61 
Q 2172 -91 1784 -91 
Q 1150 -91 751 415 
Q 353 922 353 1747 
Q 353 2572 751 3078 
Q 1150 3584 1784 3584 
Q 2172 3584 2448 3432 
Q 2725 3281 2906 2969 
z
M 947 1747 
Q 947 1113 1208 752 
Q 1469 391 1925 391 
Q 2381 391 2643 752 
Q 2906 1113 2906 1747 
Q 2906 2381 2643 2742 
Q 2381 3103 1925 3103 
Q 1469 3103 1208 2742 
Q 947 2381 947 1747 
z
" transform="scale(0.015625)"/>
      <path id="DejaVuSans-20" transform="scale(0.015625)"/>
      <path id="DejaVuSans-28" d="M 1984 4856 
Q 1566 4138 1362 3434 
Q 1159 2731 1159 2009 
Q 1159 1288 1364 580 
Q 1569 -128 1984 -844 
L 1484 -844 
Q 1016 -109 783 600 
Q 550 1309 550 2009 
Q 550 2706 781 3412 
Q 1013 4119 1484 4856 
L 1984 4856 
z
" transform="scale(0.015625)"/>
      <path id="DejaVuSans-394" d="M 2188 4044 
L 906 525 
L 3472 525 
L 2188 4044 
z
M 50 0 
L 1831 4666 
L 2547 4666 
L 4325 0 
L 50 0 
z
" transform="scale(0.015625)"/>
      <path id="DejaVuSans-2113" d="M 950 838 
Q 1078 213 1350 213 
Q 1531 213 1766 572 
L 2181 572 
Q 1994 253 1775 88 
Q 1538 -91 1319 -91 
Q 831 -91 634 344 
L 400 0 
L -88 0 
Q 250 459 500 888 
Q 469 1131 469 1397 
Q 469 1872 566 2347 
Q 931 4131 1256 4497 
Q 1481 4750 1866 4750 
Q 2256 4750 2256 4209 
Q 2253 3966 2197 3675 
Q 1972 2484 950 838 
z
M 947 1656 
Q 1531 2744 1709 3613 
Q 1803 4072 1803 4191 
Q 1803 4406 1725 4406 
Q 1384 4134 1081 2516 
Q 997 2063 947 1656 
z
" transform="scale(0.015625)"/>
      <path id="DejaVuSans-3e" d="M 678 3150 
L 678 3719 
L 4684 2266 
L 4684 1747 
L 678 294 
L 678 863 
L 3897 2003 
L 678 3150 
z
" transform="scale(0.015625)"/>
      <path id="DejaVuSans-29" d="M 513 4856 
L 1013 4856 
Q 1481 4119 1714 3412 
Q 1947 2706 1947 2009 
Q 1947 1309 1714 600 
Q 1481 -109 1013 -844 
L 513 -844 
Q 928 -128 1133 580 
Q 1338 1288 1338 2009 
Q 1338 2731 1133 3434 
Q 928 4138 513 4856 
z
" transform="scale(0.015625)"/>
     </defs>
     <use xlink:href="#DejaVuSans-65"/>
     <use xlink:href="#DejaVuSans-78" transform="translate(59.773438 0)"/>
     <use xlink:href="#DejaVuSans-74" transform="translate(118.953125 0)"/>
     <use xlink:href="#DejaVuSans-65" transform="translate(158.162109 0)"/>
     <use xlink:href="#DejaVuSans-6e" transform="translate(219.685547 0)"/>
     <use xlink:href="#DejaVuSans-64" transform="translate(283.064453 0)"/>
     <use xlink:href="#DejaVuSans-20" transform="translate(346.541016 0)"/>
     <use xlink:href="#DejaVuSans-28" transform="translate(378.328125 0)"/>
     <use xlink:href="#DejaVuSans-394" transform="translate(417.341797 0)"/>
     <use xlink:href="#DejaVuSans-2113" transform="translate(485.75 0)"/>
     <use xlink:href="#DejaVuSans-3e" transform="translate(527.058594 0)"/>
     <use xlink:href="#DejaVuSans-30" transform="translate(610.847656 0)"/>
     <use xlink:href="#DejaVuSans-29" transform="translate(674.470703 0)"/>
    </g>
    <!-- horizontal -->
    <g transform="translate(365.863094 219.450875) scale(0.09 -0.09)">
     <defs>
      <path id="DejaVuSans-68" d="M 3513 2113 
L 3513 0 
L 2938 0 
L 2938 2094 
Q 2938 2591 2744 2837 
Q 2550 3084 2163 3084 
Q 1697 3084 1428 2787 
Q 1159 2491 1159 1978 
L 1159 0 
L 581 0 
L 581 4863 
L 1159 4863 
L 1159 2956 
Q 1366 3272 1645 3428 
Q 1925 3584 2291 3584 
Q 2894 3584 3203 3211 
Q 3513 2838 3513 2113 
z
" transform="scale(0.015625)"/>
      <path id="DejaVuSans-6f" d="M 1959 3097 
Q 1497 3097 1228 2736 
Q 959 2375 959 1747 
Q 959 1119 1226 758 
Q 1494 397 1959 397 
Q 2419 397 2687 759 
Q 2956 1122 2956 1747 
Q 2956 2369 2687 2733 
Q 2419 3097 1959 3097 
z
M 1959 3584 
Q 2709 3584 3137 3096 
Q 3566 2609 3566 1747 
Q 3566 888 3137 398 
Q 2709 -91 1959 -91 
Q 1206 -91 779 398 
Q 353 888 353 1747 
Q 353 2609 779 3096 
Q 1206 3584 1959 3584 
z
" transform="scale(0.015625)"/>
      <path id="DejaVuSans-72" d="M 2631 2963 
Q 2534 3019 2420 3045 
Q 2306 3072 2169 3072 
Q 1681 3072 1420 2755 
Q 1159 2438 1159 1844 
L 1159 0 
L 581 0 
L 581 3500 
L 1159 3500 
L 1159 2956 
Q 1341 3275 1631 3429 
Q 1922 3584 2338 3584 
Q 2397 3584 2469 3576 
Q 2541 3569 2628 3553 
L 2631 2963 
z
" transform="scale(0.015625)"/>
      <path id="DejaVuSans-7a" d="M 353 3500 
L 3084 3500 
L 3084 2975 
L 922 459 
L 3084 459 
L 3084 0 
L 275 0 
L 275 525 
L 2438 3041 
L 353 3041 
L 353 3500 
z
" transform="scale(0.015625)"/>
     </defs>
     <use xlink:href="#DejaVuSans-68"/>
     <use xlink:href="#DejaVuSans-6f" transform="translate(63.378906 0)"/>
     <use xlink:href="#DejaVuSans-72" transform="translate(124.560547 0)"/>
     <use xlink:href="#DejaVuSans-69" transform="translate(165.673828 0)"/>
     <use xlink:href="#DejaVuSans-7a" transform="translate(193.457031 0)"/>
     <use xlink:href="#DejaVuSans-6f" transform="translate(245.947266 0)"/>
     <use xlink:href="#DejaVuSans-6e" transform="translate(307.128906 0)"/>
     <use xlink:href="#DejaVuSans-74" transform="translate(370.507812 0)"/>
     <use xlink:href="#DejaVuSans-61" transform="translate(409.716797 0)"/>
     <use xlink:href="#DejaVuSans-6c" transform="translate(470.996094 0)"/>
    </g>
   </g>
   <g id="text_12">
    <!-- extend (Δℓ&gt;0) -->
    <g transform="translate(7.2 209.372844) scale(0.09 -0.09)">
     <use xlink:href="#DejaVuSans-65"/>
     <use xlink:href="#DejaVuSans-78" transform="translate(59.773438 0)"/>
     <use xlink:href="#DejaVuSans-74" transform="translate(118.953125 0)"/>
     <use xlink:href="#DejaVuSans-65" transform="translate(158.162109 0)"/>
     <use xlink:href="#DejaVuSans-6e" transform="translate(219.685547 0)"/>
     <use xlink:href="#DejaVuSans-64" transform="translate(283.064453 0)"/>
     <use xlink:href="#DejaVuSans-20" transform="translate(346.541016 0)"/>
     <use xlink:href="#DejaVuSans-28" transform="translate(378.328125 0)"/>
     <use xlink:href="#DejaVuSans-394" transform="translate(417.341797 0)"/>
     <use xlink:href="#DejaVuSans-2113" transform="translate(485.75 0)"/>
     <use xlink:href="#DejaVuSans-3e" transform="translate(527.058594 0)"/>
     <use xlink:href="#DejaVuSans-30" transform="translate(610.847656 0)"/>
     <use xlink:href="#DejaVuSans-29" transform="translate(674.470703 0)"/>
    </g>
    <!-- horizontal -->
    <g transform="translate(16.86375 219.450875) scale(0.09 -0.09)">
     <use xlink:href="#DejaVuSans-68"/>
     <use xlink:href="#DejaVuSans-6f" transform="translate(63.378906 0)"/>
     <use xlink:href="#DejaVuSans-72" transform="translate(124.560547 0)"/>
     <use xlink:href="#DejaVuSans-69" transform="translate(165.673828 0)"/>
     <use xlink:href="#DejaVuSans-7a" transform="translate(193.457031 0)"/>
     <use xlink:href="#DejaVuSans-6f" transform="translate(245.947266 0)"/>
     <use xlink:href="#DejaVuSans-6e" transform="translate(307.128906 0)"/>
     <use xlink:href="#DejaVuSans-74" transform="translate(370.507812 0)"/>
     <use xlink:href="#DejaVuSans-61" transform="translate(409.716797 0)"/>
     <use xlink:href="#DejaVuSans-6c" transform="translate(470.996094 0)"/>
    </g>
   </g>
   <g id="text_13">
    <!-- retract (Δℓ&lt;0) -->
    <g transform="translate(182.16725 329.341368) scale(0.09 -0.09)">
     <defs>
      <path id="DejaVuSans-63" d="M 3122 3366 
L 3122 2828 
Q 2878 2963 2633 3030 
Q 2388 3097 2138 3097 
Q 1578 3097 1268 2742 
Q 959 2388 959 1747 
Q 959 1106 1268 751 
Q 1578 397 2138 397 
Q 2388 397 2633 464 
Q 2878 531 3122 666 
L 3122 134 
Q 2881 22 2623 -34 
Q 2366 -91 2075 -91 
Q 1284 -91 818 406 
Q 353 903 353 1747 
Q 353 2603 823 3093 
Q 1294 3584 2113 3584 
Q 2378 3584 2631 3529 
Q 2884 3475 3122 3366 
z
" transform="scale(0.015625)"/>
      <path id="DejaVuSans-3c" d="M 4684 3150 
L 1459 2003 
L 4684 863 
L 4684 294 
L 678 1747 
L 678 2266 
L 4684 3719 
L 4684 3150 
z
" transform="scale(0.015625)"/>
     </defs>
     <use xlink:href="#DejaVuSans-72"/>
     <use xlink:href="#DejaVuSans-65" transform="translate(38.863281 0)"/>
     <use xlink:href="#DejaVuSans-74" transform="translate(100.386719 0)"/>
     <use xlink:href="#DejaVuSans-72" transform="translate(139.595703 0)"/>
     <use xlink:href="#DejaVuSans-61" transform="translate(180.708984 0)"/>
     <use xlink:href="#DejaVuSans-63" transform="translate(241.988281 0)"/>
     <use xlink:href="#DejaVuSans-74" transform="translate(296.96875 0)"/>
     <use xlink:href="#DejaVuSans-20" transform="translate(336.177734 0)"/>
     <use xlink:href="#DejaVuSans-28" transform="translate(367.964844 0)"/>
     <use xlink:href="#DejaVuSans-394" transform="translate(406.978516 0)"/>
     <use xlink:href="#DejaVuSans-2113" transform="translate(475.386719 0)"/>
     <use xlink:href="#DejaVuSans-3c" transform="translate(516.695312 0)"/>
     <use xlink:href="#DejaVuSans-30" transform="translate(600.484375 0)"/>
     <use xlink:href="#DejaVuSans-29" transform="translate(664.107422 0)"/>
    </g>
    <!-- vertical -->
    <g transform="translate(197.029203 339.4194) scale(0.09 -0.09)">
     <defs>
      <path id="DejaVuSans-76" d="M 191 3500 
L 800 3500 
L 1894 563 
L 2988 3500 
L 3597 3500 
L 2284 0 
L 1503 0 
L 191 3500 
z
" transform="scale(0.015625)"/>
     </defs>
     <use xlink:href="#DejaVuSans-76"/>
     <use xlink:href="#DejaVuSans-65" transform="translate(59.179688 0)"/>
     <use xlink:href="#DejaVuSans-72" transform="translate(120.703125 0)"/>
     <use xlink:href="#DejaVuSans-74" transform="translate(161.816406 0)"/>
     <use xlink:href="#DejaVuSans-69" transform="translate(201.025391 0)"/>
     <use xlink:href="#DejaVuSans-63" transform="translate(228.808594 0)"/>
     <use xlink:href="#DejaVuSans-61" transform="translate(283.789062 0)"/>
     <use xlink:href="#DejaVuSans-6c" transform="translate(345.068359 0)"/>
    </g>
   </g>
   <g id="text_14">
    <!-- retract (Δℓ&lt;0) -->
    <g transform="translate(182.16725 89.404319) scale(0.09 -0.09)">
     <use xlink:href="#DejaVuSans-72"/>
     <use xlink:href="#DejaVuSans-65" transform="translate(38.863281 0)"/>
     <use xlink:href="#DejaVuSans-74" transform="translate(100.386719 0)"/>
     <use xlink:href="#DejaVuSans-72" transform="translate(139.595703 0)"/>
     <use xlink:href="#DejaVuSans-61" transform="translate(180.708984 0)"/>
     <use xlink:href="#DejaVuSans-63" transform="translate(241.988281 0)"/>
     <use xlink:href="#DejaVuSans-74" transform="translate(296.96875 0)"/>
     <use xlink:href="#DejaVuSans-20" transform="translate(336.177734 0)"/>
     <use xlink:href="#DejaVuSans-28" transform="translate(367.964844 0)"/>
     <use xlink:href="#DejaVuSans-394" transform="translate(406.978516 0)"/>
     <use xlink:href="#DejaVuSans-2113" transform="translate(475.386719 0)"/>
     <use xlink:href="#DejaVuSans-3c" transform="translate(516.695312 0)"/>
     <use xlink:href="#DejaVuSans-30" transform="translate(600.484375 0)"/>
     <use xlink:href="#DejaVuSans-29" transform="translate(664.107422 0)"/>
    </g>
    <!-- vertical -->
    <g transform="translate(197.029203 99.48235) scale(0.09 -0.09)">
     <use xlink:href="#DejaVuSans-76"/>
     <use xlink:href="#DejaVuSans-65" transform="translate(59.179688 0)"/>
     <use xlink:href="#DejaVuSans-72" transform="translate(120.703125 0)"/>
     <use xlink:href="#DejaVuSans-74" transform="translate(161.816406 0)"/>
     <use xlink:href="#DejaVuSans-69" transform="translate(201.025391 0)"/>
     <use xlink:href="#DejaVuSans-63" transform="translate(228.808594 0)"/>
     <use xlink:href="#DejaVuSans-61" transform="translate(283.789062 0)"/>
     <use xlink:href="#DejaVuSans-6c" transform="translate(345.068359 0)"/>
    </g>
   </g>
   <g id="text_15">
    <!-- Spin-Phased Barbell Pumping: ℓ(φ) step function -->
    <g transform="translate(81.367875 15.558281) scale(0.11 -0.11)">
     <defs>
      <path id="DejaVuSans-53" d="M 3425 4513 
L 3425 3897 
Q 3066 4069 2747 4153 
Q 2428 4238 2131 4238 
Q 1616 4238 1336 4038 
Q 1056 3838 1056 3469 
Q 1056 3159 1242 3001 
Q 1428 2844 1947 2747 
L 2328 2669 
Q 3034 2534 3370 2195 
Q 3706 1856 3706 1288 
Q 3706 609 3251 259 
Q 2797 -91 1919 -91 
Q 1588 -91 1214 -16 
Q 841 59 441 206 
L 441 856 
Q 825 641 1194 531 
Q 1563 422 1919 422 
Q 2459 422 2753 634 
Q 3047 847 3047 1241 
Q 3047 1584 2836 1778 
Q 2625 1972 2144 2069 
L 1759 2144 
Q 1053 2284 737 2584 
Q 422 2884 422 3419 
Q 422 4038 858 4394 
Q 1294 4750 2059 4750 
Q 2388 4750 2728 4690 
Q 3069 4631 3425 4513 
z
" transform="scale(0.015625)"/>
      <path id="DejaVuSans-70" d="M 1159 525 
L 1159 -1331 
L 581 -1331 
L 581 3500 
L 1159 3500 
L 1159 2969 
Q 1341 3281 1617 3432 
Q 1894 3584 2278 3584 
Q 2916 3584 3314 3078 
Q 3713 2572 3713 1747 
Q 3713 922 3314 415 
Q 2916 -91 2278 -91 
Q 1894 -91 1617 61 
Q 1341 213 1159 525 
z
M 3116 1747 
Q 3116 2381 2855 2742 
Q 2594 3103 2138 3103 
Q 1681 3103 1420 2742 
Q 1159 2381 1159 1747 
Q 1159 1113 1420 752 
Q 1681 391 2138 391 
Q 2594 391 2855 752 
Q 3116 1113 3116 1747 
z
" transform="scale(0.015625)"/>
      <path id="DejaVuSans-2d" d="M 313 2009 
L 1997 2009 
L 1997 1497 
L 313 1497 
L 313 2009 
z
" transform="scale(0.015625)"/>
      <path id="DejaVuSans-50" d="M 1259 4147 
L 1259 2394 
L 2053 2394 
Q 2494 2394 2734 2622 
Q 2975 2850 2975 3272 
Q 2975 3691 2734 3919 
Q 2494 4147 2053 4147 
L 1259 4147 
z
M 628 4666 
L 2053 4666 
Q 2838 4666 3239 4311 
Q 3641 3956 3641 3272 
Q 3641 2581 3239 2228 
Q 2838 1875 2053 1875 
L 1259 1875 
L 1259 0 
L 628 0 
L 628 4666 
z
" transform="scale(0.015625)"/>
      <path id="DejaVuSans-42" d="M 1259 2228 
L 1259 519 
L 2272 519 
Q 2781 519 3026 730 
Q 3272 941 3272 1375 
Q 3272 1813 3026 2020 
Q 2781 2228 2272 2228 
L 1259 2228 
z
M 1259 4147 
L 1259 2741 
L 2194 2741 
Q 2656 2741 2882 2914 
Q 3109 3088 3109 3444 
Q 3109 3797 2882 3972 
Q 2656 4147 2194 4147 
L 1259 4147 
z
M 628 4666 
L 2241 4666 
Q 2963 4666 3353 4366 
Q 3744 4066 3744 3513 
Q 3744 3084 3544 2831 
Q 3344 2578 2956 2516 
Q 3422 2416 3680 2098 
Q 3938 1781 3938 1306 
Q 3938 681 3513 340 
Q 3088 0 2303 0 
L 628 0 
L 628 4666 
z
" transform="scale(0.015625)"/>
      <path id="DejaVuSans-75" d="M 544 1381 
L 544 3500 
L 1119 3500 
L 1119 1403 
Q 1119 906 1312 657 
Q 1506 409 1894 409 
Q 2359 409 2629 706 
Q 2900 1003 2900 1516 
L 2900 3500 
L 3475 3500 
L 3475 0 
L 2900 0 
L 2900 538 
Q 2691 219 2414 64 
Q 2138 -91 1772 -91 
Q 1169 -91 856 284 
Q 544 659 544 1381 
z
M 1991 3584 
L 1991 3584 
z
" transform="scale(0.015625)"/>
      <path id="DejaVuSans-3a" d="M 750 794 
L 1409 794 
L 1409 0 
L 750 0 
L 750 794 
z
M 750 3309 
L 1409 3309 
L 1409 2516 
L 750 2516 
L 750 3309 
z
" transform="scale(0.015625)"/>
      <path id="DejaVuSans-3c6" d="M 2591 3034 
Q 2388 3034 2388 2581 
L 2388 438 
Q 2684 438 2981 763 
Q 3247 1053 3247 1750 
Q 3247 2400 2978 2750 
Q 2759 3034 2591 3034 
z
M 2591 3525 
Q 3028 3525 3425 3113 
Q 3853 2672 3853 1750 
Q 3853 903 3425 400 
Q 3022 -75 2388 -75 
L 2388 -1331 
L 1816 -1331 
L 1816 -78 
Q 1194 -78 775 400 
Q 350 888 350 1747 
Q 350 2641 775 3097 
Q 1094 3438 1613 3525 
L 1613 3016 
Q 1406 2944 1225 2700 
Q 956 2341 956 1747 
Q 956 1116 1225 756 
Q 1466 434 1816 434 
L 1816 2581 
Q 1816 3525 2591 3525 
z
" transform="scale(0.015625)"/>
      <path id="DejaVuSans-66" d="M 2375 4863 
L 2375 4384 
L 1825 4384 
Q 1516 4384 1395 4259 
Q 1275 4134 1275 3809 
L 1275 3500 
L 2222 3500 
L 2222 3053 
L 1275 3053 
L 1275 0 
L 697 0 
L 697 3053 
L 147 3053 
L 147 3500 
L 697 3500 
L 697 3744 
Q 697 4328 969 4595 
Q 1241 4863 1831 4863 
L 2375 4863 
z
" transform="scale(0.015625)"/>
     </defs>
     <use xlink:href="#DejaVuSans-53"/>
     <use xlink:href="#DejaVuSans-70" transform="translate(63.476562 0)"/>
     <use xlink:href="#DejaVuSans-69" transform="translate(126.953125 0)"/>
     <use xlink:href="#DejaVuSans-6e" transform="translate(154.736328 0)"/>
     <use xlink:href="#DejaVuSans-2d" transform="translate(218.115234 0)"/>
     <use xlink:href="#DejaVuSans-50" transform="translate(254.199219 0)"/>
     <use xlink:href="#DejaVuSans-68" transform="translate(314.501953 0)"/>
     <use xlink:href="#DejaVuSans-61" transform="translate(377.880859 0)"/>
     <use xlink:href="#DejaVuSans-73" transform="translate(439.160156 0)"/>
     <use xlink:href="#DejaVuSans-65" transform="translate(491.259766 0)"/>
     <use xlink:href="#DejaVuSans-64" transform="translate(552.783203 0)"/>
     <use xlink:href="#DejaVuSans-20" transform="translate(616.259766 0)"/>
     <use xlink:href="#DejaVuSans-42" transform="translate(648.046875 0)"/>
     <use xlink:href="#DejaVuSans-61" transform="translate(716.650391 0)"/>
     <use xlink:href="#DejaVuSans-72" transform="translate(777.929688 0)"/>
     <use xlink:href="#DejaVuSans-62" transform="translate(819.042969 0)"/>
     <use xlink:href="#DejaVuSans-65" transform="translate(882.519531 0)"/>
     <use xlink:href="#DejaVuSans-6c" transform="translate(944.042969 0)"/>
     <use xlink:href="#DejaVuSans-6c" transform="translate(971.826172 0)"/>
     <use xlink:href="#DejaVuSans-20" transform="translate(999.609375 0)"/>
     <use xlink:href="#DejaVuSans-50" transform="translate(1031.396484 0)"/>
     <use xlink:href="#DejaVuSans-75" transform="translate(1089.949219 0)"/>
     <use xlink:href="#DejaVuSans-6d" transform="translate(1153.328125 0)"/>
     <use xlink:href="#DejaVuSans-70" transform="translate(1250.740234 0)"/>
     <use xlink:href="#DejaVuSans-69" transform="translate(1314.216797 0)"/>
     <use xlink:href="#DejaVuSans-6e" transform="translate(1342 0)"/>
     <use xlink:href="#DejaVuSans-67" transform="translate(1405.378906 0)"/>
     <use xlink:href="#DejaVuSans-3a" transform="translate(1468.855469 0)"/>
     <use xlink:href="#DejaVuSans-20" transform="translate(1502.546875 0)"/>
     <use xlink:href="#DejaVuSans-2113" transform="translate(1534.333984 0)"/>
     <use xlink:href="#DejaVuSans-28" transform="translate(1575.642578 0)"/>
     <use xlink:href="#DejaVuSans-3c6" transform="translate(1614.65625 0)"/>
     <use xlink:href="#DejaVuSans-29" transform="translate(1680.623047 0)"/>
     <use xlink:href="#DejaVuSans-20" transform="translate(1719.636719 0)"/>
     <use xlink:href="#DejaVuSans-73" transform="translate(1751.423828 0)"/>
     <use xlink:href="#DejaVuSans-74" transform="translate(1803.523438 0)"/>
     <use xlink:href="#DejaVuSans-65" transform="translate(1842.732422 0)"/>
     <use xlink:href="#DejaVuSans-70" transform="translate(1904.255859 0)"/>
     <use xlink:href="#DejaVuSans-20" transform="translate(1967.732422 0)"/>
     <use xlink:href="#DejaVuSans-66" transform="translate(1999.519531 0)"/>
     <use xlink:href="#DejaVuSans-75" transform="translate(2034.724609 0)"/>
     <use xlink:href="#DejaVuSans-6e" transform="translate(2098.103516 0)"/>
     <use xlink:href="#DejaVuSans-63" transform="translate(2161.482422 0)"/>
     <use xlink:href="#DejaVuSans-74" transform="translate(2216.462891 0)"/>
     <use xlink:href="#DejaVuSans-69" transform="translate(2255.671875 0)"/>
     <use xlink:href="#DejaVuSans-6f" transform="translate(2283.455078 0)"/>
     <use xlink:href="#DejaVuSans-6e" transform="translate(2344.636719 0)"/>
    </g>
    <!-- (extend@horizontal, retract@vertical) -->
    <g transform="translate(109.530453 27.875875) scale(0.11 -0.11)">
     <defs>
      <path id="DejaVuSans-40" d="M 2381 1678 
Q 2381 1231 2603 976 
Q 2825 722 3213 722 
Q 3597 722 3817 978 
Q 4038 1234 4038 1678 
Q 4038 2116 3813 2373 
Q 3588 2631 3206 2631 
Q 2828 2631 2604 2375 
Q 2381 2119 2381 1678 
z
M 4084 744 
Q 3897 503 3655 389 
Q 3413 275 3091 275 
Q 2553 275 2217 664 
Q 1881 1053 1881 1678 
Q 1881 2303 2218 2693 
Q 2556 3084 3091 3084 
Q 3413 3084 3656 2967 
Q 3900 2850 4084 2613 
L 4084 3022 
L 4531 3022 
L 4531 722 
Q 4988 791 5245 1139 
Q 5503 1488 5503 2041 
Q 5503 2375 5404 2669 
Q 5306 2963 5106 3213 
Q 4781 3622 4314 3839 
Q 3847 4056 3297 4056 
Q 2913 4056 2559 3954 
Q 2206 3853 1906 3653 
Q 1416 3334 1139 2817 
Q 863 2300 863 1697 
Q 863 1200 1042 765 
Q 1222 331 1563 0 
Q 1891 -325 2322 -495 
Q 2753 -666 3244 -666 
Q 3647 -666 4036 -530 
Q 4425 -394 4750 -141 
L 5031 -488 
Q 4641 -791 4180 -952 
Q 3719 -1113 3244 -1113 
Q 2666 -1113 2153 -908 
Q 1641 -703 1241 -313 
Q 841 78 631 592 
Q 422 1106 422 1697 
Q 422 2266 634 2781 
Q 847 3297 1241 3688 
Q 1644 4084 2172 4295 
Q 2700 4506 3291 4506 
Q 3953 4506 4520 4234 
Q 5088 3963 5472 3463 
Q 5706 3156 5829 2797 
Q 5953 2438 5953 2053 
Q 5953 1231 5456 756 
Q 4959 281 4084 263 
L 4084 744 
z
" transform="scale(0.015625)"/>
      <path id="DejaVuSans-2c" d="M 750 794 
L 1409 794 
L 1409 256 
L 897 -744 
L 494 -744 
L 750 256 
L 750 794 
z
" transform="scale(0.015625)"/>
     </defs>
     <use xlink:href="#DejaVuSans-28"/>
     <use xlink:href="#DejaVuSans-65" transform="translate(39.013672 0)"/>
     <use xlink:href="#DejaVuSans-78" transform="translate(98.787109 0)"/>
     <use xlink:href="#DejaVuSans-74" transform="translate(157.966797 0)"/>
     <use xlink:href="#DejaVuSans-65" transform="translate(197.175781 0)"/>
     <use xlink:href="#DejaVuSans-6e" transform="translate(258.699219 0)"/>
     <use xlink:href="#DejaVuSans-64" transform="translate(322.078125 0)"/>
     <use xlink:href="#DejaVuSans-40" transform="translate(385.554688 0)"/>
     <use xlink:href="#DejaVuSans-68" transform="translate(485.554688 0)"/>
     <use xlink:href="#DejaVuSans-6f" transform="translate(548.933594 0)"/>
     <use xlink:href="#DejaVuSans-72" transform="translate(610.115234 0)"/>
     <use xlink:href="#DejaVuSans-69" transform="translate(651.228516 0)"/>
     <use xlink:href="#DejaVuSans-7a" transform="translate(679.011719 0)"/>
     <use xlink:href="#DejaVuSans-6f" transform="translate(731.501953 0)"/>
     <use xlink:href="#DejaVuSans-6e" transform="translate(792.683594 0)"/>
     <use xlink:href="#DejaVuSans-74" transform="translate(856.0625 0)"/>
     <use xlink:href="#DejaVuSans-61" transform="translate(895.271484 0)"/>
     <use xlink:href="#DejaVuSans-6c" transform="translate(956.550781 0)"/>
     <use xlink:href="#DejaVuSans-2c" transform="translate(984.333984 0)"/>
     <use xlink:href="#DejaVuSans-20" transform="translate(1016.121094 0)"/>
     <use xlink:href="#DejaVuSans-72" transform="translate(1047.908203 0)"/>
     <use xlink:href="#DejaVuSans-65" transform="translate(1086.771484 0)"/>
     <use xlink:href="#DejaVuSans-74" transform="translate(1148.294922 0)"/>
     <use xlink:href="#DejaVuSans-72" transform="translate(1187.503906 0)"/>
     <use xlink:href="#DejaVuSans-61" transform="translate(1228.617188 0)"/>
     <use xlink:href="#DejaVuSans-63" transform="translate(1289.896484 0)"/>
     <use xlink:href="#DejaVuSans-74" transform="translate(1344.876953 0)"/>
     <use xlink:href="#DejaVuSans-40" transform="translate(1384.085938 0)"/>
     <use xlink:href="#DejaVuSans-76" transform="translate(1484.085938 0)"/>
     <use xlink:href="#DejaVuSans-65" transform="translate(1543.265625 0)"/>
     <use xlink:href="#DejaVuSans-72" transform="translate(1604.789062 0)"/>
     <use xlink:href="#DejaVuSans-74" transform="translate(1645.902344 0)"/>
     <use xlink:href="#DejaVuSans-69" transform="translate(1685.111328 0)"/>
     <use xlink:href="#DejaVuSans-63" transform="translate(1712.894531 0)"/>
     <use xlink:href="#DejaVuSans-61" transform="translate(1767.875 0)"/>
     <use xlink:href="#DejaVuSans-6c" transform="translate(1829.154297 0)"/>
     <use xlink:href="#DejaVuSans-29" transform="translate(1856.9375 0)"/>
    </g>
   </g>
  </g>
 </g>
 <defs>
  <clipPath id="pad998b8731">
   <path d="M 380.127875 221.322594 
C 380.127875 199.481651 375.825686 177.853085 367.467519 157.674685 
C 359.109352 137.496286 346.857754 119.160472 331.413875 103.716594 
C 315.969997 88.272716 297.634183 76.021117 277.455784 67.66295 
C 257.277384 59.304783 235.648818 55.002594 213.807875 55.002594 
C 191.966933 55.002594 170.338366 59.304783 150.159967 67.66295 
C 129.981567 76.021117 111.645754 88.272716 96.201875 103.716594 
C 80.757997 119.160472 68.506398 137.496286 60.148231 157.674685 
C 51.790065 177.853085 47.487875 199.481651 47.487875 221.322594 
C 47.487875 243.163536 51.790065 264.792103 60.148231 284.970502 
C 68.506398 305.148902 80.757997 323.484715 96.201875 338.928594 
C 111.645754 354.372472 129.981567 366.624071 150.159967 374.982238 
C 170.338366 383.340404 191.966933 387.642594 213.807875 387.642594 
C 235.648818 387.642594 257.277384 383.340404 277.455784 374.982238 
C 297.634183 366.624071 315.969997 354.372472 331.413875 338.928594 
C 346.857754 323.484715 359.109352 305.148902 367.467519 284.970502 
C 375.825686 264.792103 380.127875 243.163536 380.127875 221.322594 
M 213.807875 221.322594 
C 213.807875 221.322594 213.807875 221.322594 213.807875 221.322594 
C 213.807875 221.322594 213.807875 221.322594 213.807875 221.322594 
C 213.807875 221.322594 213.807875 221.322594 213.807875 221.322594 
C 213.807875 221.322594 213.807875 221.322594 213.807875 221.322594 
C 213.807875 221.322594 213.807875 221.322594 213.807875 221.322594 
C 213.807875 221.322594 213.807875 221.322594 213.807875 221.322594 
C 213.807875 221.322594 213.807875 221.322594 213.807875 221.322594 
C 213.807875 221.322594 213.807875 221.322594 213.807875 221.322594 
C 213.807875 221.322594 213.807875 221.322594 213.807875 221.322594 
C 213.807875 221.322594 213.807875 221.322594 213.807875 221.322594 
C 213.807875 221.322594 213.807875 221.322594 213.807875 221.322594 
C 213.807875 221.322594 213.807875 221.322594 213.807875 221.322594 
C 213.807875 221.322594 213.807875 221.322594 213.807875 221.322594 
C 213.807875 221.322594 213.807875 221.322594 213.807875 221.322594 
C 213.807875 221.322594 213.807875 221.322594 213.807875 221.322594 
C 213.807875 221.322594 213.807875 221.322594 213.807875 221.322594 
z
"/>
  </clipPath>
 </defs>
</svg>
