<?xml version="1.0" encoding="utf-8" standalone="no"?>
<!DOCTYPE svg PUBLIC "-//W3C//DTD SVG 1.1//EN"
  "http://www.w3.org/Graphics/SVG/1.1/DTD/svg11.dtd">
<svg xmlns:xlink="http://www.w3.org/1999/xlink" width="409.267406pt" height="361.687531pt" viewBox="0 0 409.267406 361.687531" xmlns="http://www.w3.org/2000/svg" version="1.1">
 <metadata>
  <rdf:RDF xmlns:dc="http://purl.org/dc/elements/1.1/" xmlns:cc="http://creativecommons.org/ns#" xmlns:rdf="http://www.w3.org/1999/02/22-rdf-syntax-ns#">
   <cc:Work>
    <dc:type rdf:resource="http://purl.org/dc/dcmitype/StillImage"/>
    <dc:date>2025-08-27T08:46:26.554876</dc:date>
    <dc:format>image/svg+xml</dc:format>
    <dc:creator>
     <cc:Agent>
      <dc:title>Matplotlib v3.10.5, https://matplotlib.org/</dc:title>
     </cc:Agent>
    </dc:creator>
   </cc:Work>
  </rdf:RDF>
 </metadata>
 <defs>
  <style type="text/css">*{stroke-linejoin: round; stroke-linecap: butt}</style>
 </defs>
 <g id="figure_1">
  <g id="patch_1">
   <path d="M 0 361.687531 
L 409.267406 361.687531 
L 409.267406 -0 
L 0 -0 
z
" style="fill: #ffffff"/>
  </g>
  <g id="axes_1">
   <g id="patch_2">
    <path d="M 206.485031 215.887531 
C 213.836461 215.887531 220.887785 212.966777 226.086031 207.768531 
C 231.284277 202.570285 234.205031 195.518961 234.205031 188.167531 
C 234.205031 180.816101 231.284277 173.764777 226.086031 168.566531 
C 220.887785 163.368285 213.836461 160.447531 206.485031 160.447531 
C 199.133601 160.447531 192.082277 163.368285 186.884031 168.566531 
C 181.685785 173.764777 178.765031 180.816101 178.765031 188.167531 
C 178.765031 195.518961 181.685785 202.570285 186.884031 207.768531 
C 192.082277 212.966777 199.133601 215.887531 206.485031 215.887531 
L 206.485031 215.887531 
z
" clip-path="url(#p2c9d2fa66b)" style="fill: none; stroke: #000000; stroke-width: 1.5; stroke-linejoin: miter"/>
   </g>
   <g id="patch_3">
    <path d="M 301.509003 130.993879 
Q 298.350627 125.52341 295.751267 121.021187 
" clip-path="url(#p2c9d2fa66b)" style="fill: none; stroke: #000000; stroke-linecap: round"/>
    <path d="M 296.019216 125.485289 
L 295.751267 121.021187 
L 299.483318 123.485289 
" clip-path="url(#p2c9d2fa66b)" style="fill: none; stroke: #000000; stroke-linecap: round"/>
   </g>
   <g id="patch_4">
    <path d="M 317.365031 188.167531 
C 317.365031 158.771605 305.67509 130.54959 284.889031 109.763531 
C 264.102972 88.977473 235.880957 77.287531 206.485031 77.287531 
" clip-path="url(#p2c9d2fa66b)" style="fill: none; stroke: #000000; stroke-width: 3; stroke-linejoin: miter"/>
   </g>
   <g id="patch_5">
    <path d="M 206.485031 77.287531 
C 177.089105 77.287531 148.86709 88.977473 128.081031 109.763531 
C 107.294973 130.54959 95.605031 158.771605 95.605031 188.167531 
" clip-path="url(#p2c9d2fa66b)" style="fill: none; stroke-dasharray: 7.4,3.2; stroke-dashoffset: 0; stroke: #000000; stroke-width: 2; stroke-linejoin: miter"/>
   </g>
   <g id="patch_6">
    <path d="M 95.605031 188.167531 
C 95.605031 217.563457 107.294973 245.785472 128.081031 266.571531 
C 148.86709 287.35759 177.089105 299.047531 206.485031 299.047531 
" clip-path="url(#p2c9d2fa66b)" style="fill: none; stroke: #000000; stroke-width: 3; stroke-linejoin: miter"/>
   </g>
   <g id="patch_7">
    <path d="M 206.485031 299.047531 
C 235.880957 299.047531 264.102972 287.35759 284.889031 266.571531 
C 305.67509 245.785472 317.365031 217.563457 317.365031 188.167531 
" clip-path="url(#p2c9d2fa66b)" style="fill: none; stroke-dasharray: 7.4,3.2; stroke-dashoffset: 0; stroke: #000000; stroke-width: 2; stroke-linejoin: miter"/>
   </g>
   <g id="line2d_1">
    <path d="M 317.365031 188.167531 
" clip-path="url(#p2c9d2fa66b)" style="fill: none; stroke: #1f77b4; stroke-width: 1.5; stroke-linecap: square"/>
    <defs>
     <path id="mcaa6b4cb94" d="M 0 1.5 
C 0.397805 1.5 0.77937 1.341951 1.06066 1.06066 
C 1.341951 0.77937 1.5 0.397805 1.5 0 
C 1.5 -0.397805 1.341951 -0.77937 1.06066 -1.06066 
C 0.77937 -1.341951 0.397805 -1.5 0 -1.5 
C -0.397805 -1.5 -0.77937 -1.341951 -1.06066 -1.06066 
C -1.341951 -0.77937 -1.5 -0.397805 -1.5 0 
C -1.5 0.397805 -1.341951 0.77937 -1.06066 1.06066 
C -0.77937 1.341951 -0.397805 1.5 0 1.5 
z
" style="stroke: #1f77b4"/>
    </defs>
    <g clip-path="url(#p2c9d2fa66b)">
     <use xlink:href="#mcaa6b4cb94" x="317.365031" y="188.167531" style="fill: #1f77b4; stroke: #1f77b4"/>
    </g>
   </g>
   <g id="line2d_2">
    <path d="M 95.605031 188.167531 
" clip-path="url(#p2c9d2fa66b)" style="fill: none; stroke: #ff7f0e; stroke-width: 1.5; stroke-linecap: square"/>
    <defs>
     <path id="m6b5d25a921" d="M 0 1.5 
C 0.397805 1.5 0.77937 1.341951 1.06066 1.06066 
C 1.341951 0.77937 1.5 0.397805 1.5 0 
C 1.5 -0.397805 1.341951 -0.77937 1.06066 -1.06066 
C 0.77937 -1.341951 0.397805 -1.5 0 -1.5 
C -0.397805 -1.5 -0.77937 -1.341951 -1.06066 -1.06066 
C -1.341951 -0.77937 -1.5 -0.397805 -1.5 0 
C -1.5 0.397805 -1.341951 0.77937 -1.06066 1.06066 
C -0.77937 1.341951 -0.397805 1.5 0 1.5 
z
" style="stroke: #ff7f0e"/>
    </defs>
    <g clip-path="url(#p2c9d2fa66b)">
     <use xlink:href="#m6b5d25a921" x="95.605031" y="188.167531" style="fill: #ff7f0e; stroke: #ff7f0e"/>
    </g>
   </g>
   <g id="line2d_3">
    <path d="M 206.485031 77.287531 
" clip-path="url(#p2c9d2fa66b)" style="fill: none; stroke: #2ca02c; stroke-width: 1.5; stroke-linecap: square"/>
    <defs>
     <path id="mbaad24825b" d="M 0 1.5 
C 0.397805 1.5 0.77937 1.341951 1.06066 1.06066 
C 1.341951 0.77937 1.5 0.397805 1.5 0 
C 1.5 -0.397805 1.341951 -0.77937 1.06066 -1.06066 
C 0.77937 -1.341951 0.397805 -1.5 0 -1.5 
C -0.397805 -1.5 -0.77937 -1.341951 -1.06066 -1.06066 
C -1.341951 -0.77937 -1.5 -0.397805 -1.5 0 
C -1.5 0.397805 -1.341951 0.77937 -1.06066 1.06066 
C -0.77937 1.341951 -0.397805 1.5 0 1.5 
z
" style="stroke: #2ca02c"/>
    </defs>
    <g clip-path="url(#p2c9d2fa66b)">
     <use xlink:href="#mbaad24825b" x="206.485031" y="77.287531" style="fill: #2ca02c; stroke: #2ca02c"/>
    </g>
   </g>
   <g id="line2d_4">
    <path d="M 206.485031 299.047531 
" clip-path="url(#p2c9d2fa66b)" style="fill: none; stroke: #d62728; stroke-width: 1.5; stroke-linecap: square"/>
    <defs>
     <path id="m98227b9eff" d="M 0 1.5 
C 0.397805 1.5 0.77937 1.341951 1.06066 1.06066 
C 1.341951 0.77937 1.5 0.397805 1.5 0 
C 1.5 -0.397805 1.341951 -0.77937 1.06066 -1.06066 
C 0.77937 -1.341951 0.397805 -1.5 0 -1.5 
C -0.397805 -1.5 -0.77937 -1.341951 -1.06066 -1.06066 
C -1.341951 -0.77937 -1.5 -0.397805 -1.5 0 
C -1.5 0.397805 -1.341951 0.77937 -1.06066 1.06066 
C -0.77937 1.341951 -0.397805 1.5 0 1.5 
z
" style="stroke: #d62728"/>
    </defs>
    <g clip-path="url(#p2c9d2fa66b)">
     <use xlink:href="#m98227b9eff" x="206.485031" y="299.047531" style="fill: #d62728; stroke: #d62728"/>
    </g>
   </g>
   <g id="text_1">
    <!-- Earth -->
    <g transform="translate(193.077219 198.537969) scale(0.1 -0.1)">
     <defs>
      <path id="DejaVuSans-45" d="M 628 4666 
L 3578 4666 
L 3578 4134 
L 1259 4134 
L 1259 2753 
L 3481 2753 
L 3481 2222 
L 1259 2222 
L 1259 531 
L 3634 531 
L 3634 0 
L 628 0 
L 628 4666 
z
" transform="scale(0.015625)"/>
      <path id="DejaVuSans-61" d="M 2194 1759 
Q 1497 1759 1228 1600 
Q 959 1441 959 1056 
Q 959 750 1161 570 
Q 1363 391 1709 391 
Q 2188 391 2477 730 
Q 2766 1069 2766 1631 
L 2766 1759 
L 2194 1759 
z
M 3341 1997 
L 3341 0 
L 2766 0 
L 2766 531 
Q 2569 213 2275 61 
Q 1981 -91 1556 -91 
Q 1019 -91 701 211 
Q 384 513 384 1019 
Q 384 1609 779 1909 
Q 1175 2209 1959 2209 
L 2766 2209 
L 2766 2266 
Q 2766 2663 2505 2880 
Q 2244 3097 1772 3097 
Q 1472 3097 1187 3025 
Q 903 2953 641 2809 
L 641 3341 
Q 956 3463 1253 3523 
Q 1550 3584 1831 3584 
Q 2591 3584 2966 3190 
Q 3341 2797 3341 1997 
z
" transform="scale(0.015625)"/>
      <path id="DejaVuSans-72" d="M 2631 2963 
Q 2534 3019 2420 3045 
Q 2306 3072 2169 3072 
Q 1681 3072 1420 2755 
Q 1159 2438 1159 1844 
L 1159 0 
L 581 0 
L 581 3500 
L 1159 3500 
L 1159 2956 
Q 1341 3275 1631 3429 
Q 1922 3584 2338 3584 
Q 2397 3584 2469 3576 
Q 2541 3569 2628 3553 
L 2631 2963 
z
" transform="scale(0.015625)"/>
      <path id="DejaVuSans-74" d="M 1172 4494 
L 1172 3500 
L 2356 3500 
L 2356 3053 
L 1172 3053 
L 1172 1153 
Q 1172 725 1289 603 
Q 1406 481 1766 481 
L 2356 481 
L 2356 0 
L 1766 0 
Q 1100 0 847 248 
Q 594 497 594 1153 
L 594 3053 
L 172 3053 
L 172 3500 
L 594 3500 
L 594 4494 
L 1172 4494 
z
" transform="scale(0.015625)"/>
      <path id="DejaVuSans-68" d="M 3513 2113 
L 3513 0 
L 2938 0 
L 2938 2094 
Q 2938 2591 2744 2837 
Q 2550 3084 2163 3084 
Q 1697 3084 1428 2787 
Q 1159 2491 1159 1978 
L 1159 0 
L 581 0 
L 581 4863 
L 1159 4863 
L 1159 2956 
Q 1366 3272 1645 3428 
Q 1925 3584 2291 3584 
Q 2894 3584 3203 3211 
Q 3513 2838 3513 2113 
z
" transform="scale(0.015625)"/>
     </defs>
     <use xlink:href="#DejaVuSans-45"/>
     <use xlink:href="#DejaVuSans-61" transform="translate(63.183594 0)"/>
     <use xlink:href="#DejaVuSans-72" transform="translate(124.462891 0)"/>
     <use xlink:href="#DejaVuSans-74" transform="translate(165.576172 0)"/>
     <use xlink:href="#DejaVuSans-68" transform="translate(204.785156 0)"/>
    </g>
   </g>
   <g id="text_2">
    <!-- Horizontal -->
    <g transform="translate(311.020313 185.611953) scale(0.09 -0.09)">
     <defs>
      <path id="DejaVuSans-48" d="M 628 4666 
L 1259 4666 
L 1259 2753 
L 3553 2753 
L 3553 4666 
L 4184 4666 
L 4184 0 
L 3553 0 
L 3553 2222 
L 1259 2222 
L 1259 0 
L 628 0 
L 628 4666 
z
" transform="scale(0.015625)"/>
      <path id="DejaVuSans-6f" d="M 1959 3097 
Q 1497 3097 1228 2736 
Q 959 2375 959 1747 
Q 959 1119 1226 758 
Q 1494 397 1959 397 
Q 2419 397 2687 759 
Q 2956 1122 2956 1747 
Q 2956 2369 2687 2733 
Q 2419 3097 1959 3097 
z
M 1959 3584 
Q 2709 3584 3137 3096 
Q 3566 2609 3566 1747 
Q 3566 888 3137 398 
Q 2709 -91 1959 -91 
Q 1206 -91 779 398 
Q 353 888 353 1747 
Q 353 2609 779 3096 
Q 1206 3584 1959 3584 
z
" transform="scale(0.015625)"/>
      <path id="DejaVuSans-69" d="M 603 3500 
L 1178 3500 
L 1178 0 
L 603 0 
L 603 3500 
z
M 603 4863 
L 1178 4863 
L 1178 4134 
L 603 4134 
L 603 4863 
z
" transform="scale(0.015625)"/>
      <path id="DejaVuSans-7a" d="M 353 3500 
L 3084 3500 
L 3084 2975 
L 922 459 
L 3084 459 
L 3084 0 
L 275 0 
L 275 525 
L 2438 3041 
L 353 3041 
L 353 3500 
z
" transform="scale(0.015625)"/>
      <path id="DejaVuSans-6e" d="M 3513 2113 
L 3513 0 
L 2938 0 
L 2938 2094 
Q 2938 2591 2744 2837 
Q 2550 3084 2163 3084 
Q 1697 3084 1428 2787 
Q 1159 2491 1159 1978 
L 1159 0 
L 581 0 
L 581 3500 
L 1159 3500 
L 1159 2956 
Q 1366 3272 1645 3428 
Q 1925 3584 2291 3584 
Q 2894 3584 3203 3211 
Q 3513 2838 3513 2113 
z
" transform="scale(0.015625)"/>
      <path id="DejaVuSans-6c" d="M 603 4863 
L 1178 4863 
L 1178 0 
L 603 0 
L 603 4863 
z
" transform="scale(0.015625)"/>
     </defs>
     <use xlink:href="#DejaVuSans-48"/>
     <use xlink:href="#DejaVuSans-6f" transform="translate(75.195312 0)"/>
     <use xlink:href="#DejaVuSans-72" transform="translate(136.376953 0)"/>
     <use xlink:href="#DejaVuSans-69" transform="translate(177.490234 0)"/>
     <use xlink:href="#DejaVuSans-7a" transform="translate(205.273438 0)"/>
     <use xlink:href="#DejaVuSans-6f" transform="translate(257.763672 0)"/>
     <use xlink:href="#DejaVuSans-6e" transform="translate(318.945312 0)"/>
     <use xlink:href="#DejaVuSans-74" transform="translate(382.324219 0)"/>
     <use xlink:href="#DejaVuSans-61" transform="translate(421.533203 0)"/>
     <use xlink:href="#DejaVuSans-6c" transform="translate(482.8125 0)"/>
    </g>
    <!-- (extend: Δℓ&gt;0) -->
    <g transform="translate(300.372891 195.689984) scale(0.09 -0.09)">
     <defs>
      <path id="DejaVuSans-28" d="M 1984 4856 
Q 1566 4138 1362 3434 
Q 1159 2731 1159 2009 
Q 1159 1288 1364 580 
Q 1569 -128 1984 -844 
L 1484 -844 
Q 1016 -109 783 600 
Q 550 1309 550 2009 
Q 550 2706 781 3412 
Q 1013 4119 1484 4856 
L 1984 4856 
z
" transform="scale(0.015625)"/>
      <path id="DejaVuSans-65" d="M 3597 1894 
L 3597 1613 
L 953 1613 
Q 991 1019 1311 708 
Q 1631 397 2203 397 
Q 2534 397 2845 478 
Q 3156 559 3463 722 
L 3463 178 
Q 3153 47 2828 -22 
Q 2503 -91 2169 -91 
Q 1331 -91 842 396 
Q 353 884 353 1716 
Q 353 2575 817 3079 
Q 1281 3584 2069 3584 
Q 2775 3584 3186 3129 
Q 3597 2675 3597 1894 
z
M 3022 2063 
Q 3016 2534 2758 2815 
Q 2500 3097 2075 3097 
Q 1594 3097 1305 2825 
Q 1016 2553 972 2059 
L 3022 2063 
z
" transform="scale(0.015625)"/>
      <path id="DejaVuSans-78" d="M 3513 3500 
L 2247 1797 
L 3578 0 
L 2900 0 
L 1881 1375 
L 863 0 
L 184 0 
L 1544 1831 
L 300 3500 
L 978 3500 
L 1906 2253 
L 2834 3500 
L 3513 3500 
z
" transform="scale(0.015625)"/>
      <path id="DejaVuSans-64" d="M 2906 2969 
L 2906 4863 
L 3481 4863 
L 3481 0 
L 2906 0 
L 2906 525 
Q 2725 213 2448 61 
Q 2172 -91 1784 -91 
Q 1150 -91 751 415 
Q 353 922 353 1747 
Q 353 2572 751 3078 
Q 1150 3584 1784 3584 
Q 2172 3584 2448 3432 
Q 2725 3281 2906 2969 
z
M 947 1747 
Q 947 1113 1208 752 
Q 1469 391 1925 391 
Q 2381 391 2643 752 
Q 2906 1113 2906 1747 
Q 2906 2381 2643 2742 
Q 2381 3103 1925 3103 
Q 1469 3103 1208 2742 
Q 947 2381 947 1747 
z
" transform="scale(0.015625)"/>
      <path id="DejaVuSans-3a" d="M 750 794 
L 1409 794 
L 1409 0 
L 750 0 
L 750 794 
z
M 750 3309 
L 1409 3309 
L 1409 2516 
L 750 2516 
L 750 3309 
z
" transform="scale(0.015625)"/>
      <path id="DejaVuSans-20" transform="scale(0.015625)"/>
      <path id="DejaVuSans-394" d="M 2188 4044 
L 906 525 
L 3472 525 
L 2188 4044 
z
M 50 0 
L 1831 4666 
L 2547 4666 
L 4325 0 
L 50 0 
z
" transform="scale(0.015625)"/>
      <path id="DejaVuSans-2113" d="M 950 838 
Q 1078 213 1350 213 
Q 1531 213 1766 572 
L 2181 572 
Q 1994 253 1775 88 
Q 1538 -91 1319 -91 
Q 831 -91 634 344 
L 400 0 
L -88 0 
Q 250 459 500 888 
Q 469 1131 469 1397 
Q 469 1872 566 2347 
Q 931 4131 1256 4497 
Q 1481 4750 1866 4750 
Q 2256 4750 2256 4209 
Q 2253 3966 2197 3675 
Q 1972 2484 950 838 
z
M 947 1656 
Q 1531 2744 1709 3613 
Q 1803 4072 1803 4191 
Q 1803 4406 1725 4406 
Q 1384 4134 1081 2516 
Q 997 2063 947 1656 
z
" transform="scale(0.015625)"/>
      <path id="DejaVuSans-3e" d="M 678 3150 
L 678 3719 
L 4684 2266 
L 4684 1747 
L 678 294 
L 678 863 
L 3897 2003 
L 678 3150 
z
" transform="scale(0.015625)"/>
      <path id="DejaVuSans-30" d="M 2034 4250 
Q 1547 4250 1301 3770 
Q 1056 3291 1056 2328 
Q 1056 1369 1301 889 
Q 1547 409 2034 409 
Q 2525 409 2770 889 
Q 3016 1369 3016 2328 
Q 3016 3291 2770 3770 
Q 2525 4250 2034 4250 
z
M 2034 4750 
Q 2819 4750 3233 4129 
Q 3647 3509 3647 2328 
Q 3647 1150 3233 529 
Q 2819 -91 2034 -91 
Q 1250 -91 836 529 
Q 422 1150 422 2328 
Q 422 3509 836 4129 
Q 1250 4750 2034 4750 
z
" transform="scale(0.015625)"/>
      <path id="DejaVuSans-29" d="M 513 4856 
L 1013 4856 
Q 1481 4119 1714 3412 
Q 1947 2706 1947 2009 
Q 1947 1309 1714 600 
Q 1481 -109 1013 -844 
L 513 -844 
Q 928 -128 1133 580 
Q 1338 1288 1338 2009 
Q 1338 2731 1133 3434 
Q 928 4138 513 4856 
z
" transform="scale(0.015625)"/>
     </defs>
     <use xlink:href="#DejaVuSans-28"/>
     <use xlink:href="#DejaVuSans-65" transform="translate(39.013672 0)"/>
     <use xlink:href="#DejaVuSans-78" transform="translate(98.787109 0)"/>
     <use xlink:href="#DejaVuSans-74" transform="translate(157.966797 0)"/>
     <use xlink:href="#DejaVuSans-65" transform="translate(197.175781 0)"/>
     <use xlink:href="#DejaVuSans-6e" transform="translate(258.699219 0)"/>
     <use xlink:href="#DejaVuSans-64" transform="translate(322.078125 0)"/>
     <use xlink:href="#DejaVuSans-3a" transform="translate(385.554688 0)"/>
     <use xlink:href="#DejaVuSans-20" transform="translate(419.246094 0)"/>
     <use xlink:href="#DejaVuSans-394" transform="translate(451.033203 0)"/>
     <use xlink:href="#DejaVuSans-2113" transform="translate(519.441406 0)"/>
     <use xlink:href="#DejaVuSans-3e" transform="translate(560.75 0)"/>
     <use xlink:href="#DejaVuSans-30" transform="translate(644.539062 0)"/>
     <use xlink:href="#DejaVuSans-29" transform="translate(708.162109 0)"/>
    </g>
   </g>
   <g id="text_3">
    <!-- Horizontal -->
    <g transform="translate(55.996313 185.611953) scale(0.09 -0.09)">
     <use xlink:href="#DejaVuSans-48"/>
     <use xlink:href="#DejaVuSans-6f" transform="translate(75.195312 0)"/>
     <use xlink:href="#DejaVuSans-72" transform="translate(136.376953 0)"/>
     <use xlink:href="#DejaVuSans-69" transform="translate(177.490234 0)"/>
     <use xlink:href="#DejaVuSans-7a" transform="translate(205.273438 0)"/>
     <use xlink:href="#DejaVuSans-6f" transform="translate(257.763672 0)"/>
     <use xlink:href="#DejaVuSans-6e" transform="translate(318.945312 0)"/>
     <use xlink:href="#DejaVuSans-74" transform="translate(382.324219 0)"/>
     <use xlink:href="#DejaVuSans-61" transform="translate(421.533203 0)"/>
     <use xlink:href="#DejaVuSans-6c" transform="translate(482.8125 0)"/>
    </g>
    <!-- (extend: Δℓ&gt;0) -->
    <g transform="translate(45.348891 195.689984) scale(0.09 -0.09)">
     <use xlink:href="#DejaVuSans-28"/>
     <use xlink:href="#DejaVuSans-65" transform="translate(39.013672 0)"/>
     <use xlink:href="#DejaVuSans-78" transform="translate(98.787109 0)"/>
     <use xlink:href="#DejaVuSans-74" transform="translate(157.966797 0)"/>
     <use xlink:href="#DejaVuSans-65" transform="translate(197.175781 0)"/>
     <use xlink:href="#DejaVuSans-6e" transform="translate(258.699219 0)"/>
     <use xlink:href="#DejaVuSans-64" transform="translate(322.078125 0)"/>
     <use xlink:href="#DejaVuSans-3a" transform="translate(385.554688 0)"/>
     <use xlink:href="#DejaVuSans-20" transform="translate(419.246094 0)"/>
     <use xlink:href="#DejaVuSans-394" transform="translate(451.033203 0)"/>
     <use xlink:href="#DejaVuSans-2113" transform="translate(519.441406 0)"/>
     <use xlink:href="#DejaVuSans-3e" transform="translate(560.75 0)"/>
     <use xlink:href="#DejaVuSans-30" transform="translate(644.539062 0)"/>
     <use xlink:href="#DejaVuSans-29" transform="translate(708.162109 0)"/>
    </g>
   </g>
   <g id="text_4">
    <!-- Vertical -->
    <g transform="translate(189.640266 58.099953) scale(0.09 -0.09)">
     <defs>
      <path id="DejaVuSans-56" d="M 1831 0 
L 50 4666 
L 709 4666 
L 2188 738 
L 3669 4666 
L 4325 4666 
L 2547 0 
L 1831 0 
z
" transform="scale(0.015625)"/>
      <path id="DejaVuSans-63" d="M 3122 3366 
L 3122 2828 
Q 2878 2963 2633 3030 
Q 2388 3097 2138 3097 
Q 1578 3097 1268 2742 
Q 959 2388 959 1747 
Q 959 1106 1268 751 
Q 1578 397 2138 397 
Q 2388 397 2633 464 
Q 2878 531 3122 666 
L 3122 134 
Q 2881 22 2623 -34 
Q 2366 -91 2075 -91 
Q 1284 -91 818 406 
Q 353 903 353 1747 
Q 353 2603 823 3093 
Q 1294 3584 2113 3584 
Q 2378 3584 2631 3529 
Q 2884 3475 3122 3366 
z
" transform="scale(0.015625)"/>
     </defs>
     <use xlink:href="#DejaVuSans-56"/>
     <use xlink:href="#DejaVuSans-65" transform="translate(60.658203 0)"/>
     <use xlink:href="#DejaVuSans-72" transform="translate(122.181641 0)"/>
     <use xlink:href="#DejaVuSans-74" transform="translate(163.294922 0)"/>
     <use xlink:href="#DejaVuSans-69" transform="translate(202.503906 0)"/>
     <use xlink:href="#DejaVuSans-63" transform="translate(230.287109 0)"/>
     <use xlink:href="#DejaVuSans-61" transform="translate(285.267578 0)"/>
     <use xlink:href="#DejaVuSans-6c" transform="translate(346.546875 0)"/>
    </g>
    <!-- (retract: Δℓ&lt;0) -->
    <g transform="translate(173.328469 68.177984) scale(0.09 -0.09)">
     <defs>
      <path id="DejaVuSans-3c" d="M 4684 3150 
L 1459 2003 
L 4684 863 
L 4684 294 
L 678 1747 
L 678 2266 
L 4684 3719 
L 4684 3150 
z
" transform="scale(0.015625)"/>
     </defs>
     <use xlink:href="#DejaVuSans-28"/>
     <use xlink:href="#DejaVuSans-72" transform="translate(39.013672 0)"/>
     <use xlink:href="#DejaVuSans-65" transform="translate(77.876953 0)"/>
     <use xlink:href="#DejaVuSans-74" transform="translate(139.400391 0)"/>
     <use xlink:href="#DejaVuSans-72" transform="translate(178.609375 0)"/>
     <use xlink:href="#DejaVuSans-61" transform="translate(219.722656 0)"/>
     <use xlink:href="#DejaVuSans-63" transform="translate(281.001953 0)"/>
     <use xlink:href="#DejaVuSans-74" transform="translate(335.982422 0)"/>
     <use xlink:href="#DejaVuSans-3a" transform="translate(375.191406 0)"/>
     <use xlink:href="#DejaVuSans-20" transform="translate(408.882812 0)"/>
     <use xlink:href="#DejaVuSans-394" transform="translate(440.669922 0)"/>
     <use xlink:href="#DejaVuSans-2113" transform="translate(509.078125 0)"/>
     <use xlink:href="#DejaVuSans-3c" transform="translate(550.386719 0)"/>
     <use xlink:href="#DejaVuSans-30" transform="translate(634.175781 0)"/>
     <use xlink:href="#DejaVuSans-29" transform="translate(697.798828 0)"/>
    </g>
   </g>
   <g id="text_5">
    <!-- Vertical -->
    <g transform="translate(189.640266 313.123953) scale(0.09 -0.09)">
     <use xlink:href="#DejaVuSans-56"/>
     <use xlink:href="#DejaVuSans-65" transform="translate(60.658203 0)"/>
     <use xlink:href="#DejaVuSans-72" transform="translate(122.181641 0)"/>
     <use xlink:href="#DejaVuSans-74" transform="translate(163.294922 0)"/>
     <use xlink:href="#DejaVuSans-69" transform="translate(202.503906 0)"/>
     <use xlink:href="#DejaVuSans-63" transform="translate(230.287109 0)"/>
     <use xlink:href="#DejaVuSans-61" transform="translate(285.267578 0)"/>
     <use xlink:href="#DejaVuSans-6c" transform="translate(346.546875 0)"/>
    </g>
    <!-- (retract: Δℓ&lt;0) -->
    <g transform="translate(173.328469 323.201984) scale(0.09 -0.09)">
     <use xlink:href="#DejaVuSans-28"/>
     <use xlink:href="#DejaVuSans-72" transform="translate(39.013672 0)"/>
     <use xlink:href="#DejaVuSans-65" transform="translate(77.876953 0)"/>
     <use xlink:href="#DejaVuSans-74" transform="translate(139.400391 0)"/>
     <use xlink:href="#DejaVuSans-72" transform="translate(178.609375 0)"/>
     <use xlink:href="#DejaVuSans-61" transform="translate(219.722656 0)"/>
     <use xlink:href="#DejaVuSans-63" transform="translate(281.001953 0)"/>
     <use xlink:href="#DejaVuSans-74" transform="translate(335.982422 0)"/>
     <use xlink:href="#DejaVuSans-3a" transform="translate(375.191406 0)"/>
     <use xlink:href="#DejaVuSans-20" transform="translate(408.882812 0)"/>
     <use xlink:href="#DejaVuSans-394" transform="translate(440.669922 0)"/>
     <use xlink:href="#DejaVuSans-2113" transform="translate(509.078125 0)"/>
     <use xlink:href="#DejaVuSans-3c" transform="translate(550.386719 0)"/>
     <use xlink:href="#DejaVuSans-30" transform="translate(634.175781 0)"/>
     <use xlink:href="#DejaVuSans-29" transform="translate(697.798828 0)"/>
    </g>
   </g>
   <g id="text_6">
    <!-- Hold ℓ = long -->
    <g transform="translate(176.607844 57.594969) scale(0.09 -0.09)">
     <defs>
      <path id="DejaVuSans-3d" d="M 678 2906 
L 4684 2906 
L 4684 2381 
L 678 2381 
L 678 2906 
z
M 678 1631 
L 4684 1631 
L 4684 1100 
L 678 1100 
L 678 1631 
z
" transform="scale(0.015625)"/>
      <path id="DejaVuSans-67" d="M 2906 1791 
Q 2906 2416 2648 2759 
Q 2391 3103 1925 3103 
Q 1463 3103 1205 2759 
Q 947 2416 947 1791 
Q 947 1169 1205 825 
Q 1463 481 1925 481 
Q 2391 481 2648 825 
Q 2906 1169 2906 1791 
z
M 3481 434 
Q 3481 -459 3084 -895 
Q 2688 -1331 1869 -1331 
Q 1566 -1331 1297 -1286 
Q 1028 -1241 775 -1147 
L 775 -588 
Q 1028 -725 1275 -790 
Q 1522 -856 1778 -856 
Q 2344 -856 2625 -561 
Q 2906 -266 2906 331 
L 2906 616 
Q 2728 306 2450 153 
Q 2172 0 1784 0 
Q 1141 0 747 490 
Q 353 981 353 1791 
Q 353 2603 747 3093 
Q 1141 3584 1784 3584 
Q 2172 3584 2450 3431 
Q 2728 3278 2906 2969 
L 2906 3500 
L 3481 3500 
L 3481 434 
z
" transform="scale(0.015625)"/>
     </defs>
     <use xlink:href="#DejaVuSans-48"/>
     <use xlink:href="#DejaVuSans-6f" transform="translate(75.195312 0)"/>
     <use xlink:href="#DejaVuSans-6c" transform="translate(136.376953 0)"/>
     <use xlink:href="#DejaVuSans-64" transform="translate(164.160156 0)"/>
     <use xlink:href="#DejaVuSans-20" transform="translate(227.636719 0)"/>
     <use xlink:href="#DejaVuSans-2113" transform="translate(259.423828 0)"/>
     <use xlink:href="#DejaVuSans-20" transform="translate(300.732422 0)"/>
     <use xlink:href="#DejaVuSans-3d" transform="translate(332.519531 0)"/>
     <use xlink:href="#DejaVuSans-20" transform="translate(416.308594 0)"/>
     <use xlink:href="#DejaVuSans-6c" transform="translate(448.095703 0)"/>
     <use xlink:href="#DejaVuSans-6f" transform="translate(475.878906 0)"/>
     <use xlink:href="#DejaVuSans-6e" transform="translate(537.060547 0)"/>
     <use xlink:href="#DejaVuSans-67" transform="translate(600.439453 0)"/>
    </g>
   </g>
   <g id="text_7">
    <!-- Hold ℓ = short -->
    <g transform="translate(174.756516 323.706969) scale(0.09 -0.09)">
     <defs>
      <path id="DejaVuSans-73" d="M 2834 3397 
L 2834 2853 
Q 2591 2978 2328 3040 
Q 2066 3103 1784 3103 
Q 1356 3103 1142 2972 
Q 928 2841 928 2578 
Q 928 2378 1081 2264 
Q 1234 2150 1697 2047 
L 1894 2003 
Q 2506 1872 2764 1633 
Q 3022 1394 3022 966 
Q 3022 478 2636 193 
Q 2250 -91 1575 -91 
Q 1294 -91 989 -36 
Q 684 19 347 128 
L 347 722 
Q 666 556 975 473 
Q 1284 391 1588 391 
Q 1994 391 2212 530 
Q 2431 669 2431 922 
Q 2431 1156 2273 1281 
Q 2116 1406 1581 1522 
L 1381 1569 
Q 847 1681 609 1914 
Q 372 2147 372 2553 
Q 372 3047 722 3315 
Q 1072 3584 1716 3584 
Q 2034 3584 2315 3537 
Q 2597 3491 2834 3397 
z
" transform="scale(0.015625)"/>
     </defs>
     <use xlink:href="#DejaVuSans-48"/>
     <use xlink:href="#DejaVuSans-6f" transform="translate(75.195312 0)"/>
     <use xlink:href="#DejaVuSans-6c" transform="translate(136.376953 0)"/>
     <use xlink:href="#DejaVuSans-64" transform="translate(164.160156 0)"/>
     <use xlink:href="#DejaVuSans-20" transform="translate(227.636719 0)"/>
     <use xlink:href="#DejaVuSans-2113" transform="translate(259.423828 0)"/>
     <use xlink:href="#DejaVuSans-20" transform="translate(300.732422 0)"/>
     <use xlink:href="#DejaVuSans-3d" transform="translate(332.519531 0)"/>
     <use xlink:href="#DejaVuSans-20" transform="translate(416.308594 0)"/>
     <use xlink:href="#DejaVuSans-73" transform="translate(448.095703 0)"/>
     <use xlink:href="#DejaVuSans-68" transform="translate(500.195312 0)"/>
     <use xlink:href="#DejaVuSans-6f" transform="translate(563.574219 0)"/>
     <use xlink:href="#DejaVuSans-72" transform="translate(624.755859 0)"/>
     <use xlink:href="#DejaVuSans-74" transform="translate(665.869141 0)"/>
    </g>
   </g>
   <g id="text_8">
    <!-- Hold ℓ = long -->
    <g transform="translate(342.313031 190.650969) scale(0.09 -0.09)">
     <use xlink:href="#DejaVuSans-48"/>
     <use xlink:href="#DejaVuSans-6f" transform="translate(75.195312 0)"/>
     <use xlink:href="#DejaVuSans-6c" transform="translate(136.376953 0)"/>
     <use xlink:href="#DejaVuSans-64" transform="translate(164.160156 0)"/>
     <use xlink:href="#DejaVuSans-20" transform="translate(227.636719 0)"/>
     <use xlink:href="#DejaVuSans-2113" transform="translate(259.423828 0)"/>
     <use xlink:href="#DejaVuSans-20" transform="translate(300.732422 0)"/>
     <use xlink:href="#DejaVuSans-3d" transform="translate(332.519531 0)"/>
     <use xlink:href="#DejaVuSans-20" transform="translate(416.308594 0)"/>
     <use xlink:href="#DejaVuSans-6c" transform="translate(448.095703 0)"/>
     <use xlink:href="#DejaVuSans-6f" transform="translate(475.878906 0)"/>
     <use xlink:href="#DejaVuSans-6e" transform="translate(537.060547 0)"/>
     <use xlink:href="#DejaVuSans-67" transform="translate(600.439453 0)"/>
    </g>
   </g>
   <g id="text_9">
    <!-- Hold ℓ = short -->
    <g transform="translate(7.2 190.650969) scale(0.09 -0.09)">
     <use xlink:href="#DejaVuSans-48"/>
     <use xlink:href="#DejaVuSans-6f" transform="translate(75.195312 0)"/>
     <use xlink:href="#DejaVuSans-6c" transform="translate(136.376953 0)"/>
     <use xlink:href="#DejaVuSans-64" transform="translate(164.160156 0)"/>
     <use xlink:href="#DejaVuSans-20" transform="translate(227.636719 0)"/>
     <use xlink:href="#DejaVuSans-2113" transform="translate(259.423828 0)"/>
     <use xlink:href="#DejaVuSans-20" transform="translate(300.732422 0)"/>
     <use xlink:href="#DejaVuSans-3d" transform="translate(332.519531 0)"/>
     <use xlink:href="#DejaVuSans-20" transform="translate(416.308594 0)"/>
     <use xlink:href="#DejaVuSans-73" transform="translate(448.095703 0)"/>
     <use xlink:href="#DejaVuSans-68" transform="translate(500.195312 0)"/>
     <use xlink:href="#DejaVuSans-6f" transform="translate(563.574219 0)"/>
     <use xlink:href="#DejaVuSans-72" transform="translate(624.755859 0)"/>
     <use xlink:href="#DejaVuSans-74" transform="translate(665.869141 0)"/>
    </g>
   </g>
   <g id="text_10">
    <!-- Spin-Phased Barbell Pumping -->
    <g transform="translate(125.697766 15.558281) scale(0.11 -0.11)">
     <defs>
      <path id="DejaVuSans-53" d="M 3425 4513 
L 3425 3897 
Q 3066 4069 2747 4153 
Q 2428 4238 2131 4238 
Q 1616 4238 1336 4038 
Q 1056 3838 1056 3469 
Q 1056 3159 1242 3001 
Q 1428 2844 1947 2747 
L 2328 2669 
Q 3034 2534 3370 2195 
Q 3706 1856 3706 1288 
Q 3706 609 3251 259 
Q 2797 -91 1919 -91 
Q 1588 -91 1214 -16 
Q 841 59 441 206 
L 441 856 
Q 825 641 1194 531 
Q 1563 422 1919 422 
Q 2459 422 2753 634 
Q 3047 847 3047 1241 
Q 3047 1584 2836 1778 
Q 2625 1972 2144 2069 
L 1759 2144 
Q 1053 2284 737 2584 
Q 422 2884 422 3419 
Q 422 4038 858 4394 
Q 1294 4750 2059 4750 
Q 2388 4750 2728 4690 
Q 3069 4631 3425 4513 
z
" transform="scale(0.015625)"/>
      <path id="DejaVuSans-70" d="M 1159 525 
L 1159 -1331 
L 581 -1331 
L 581 3500 
L 1159 3500 
L 1159 2969 
Q 1341 3281 1617 3432 
Q 1894 3584 2278 3584 
Q 2916 3584 3314 3078 
Q 3713 2572 3713 1747 
Q 3713 922 3314 415 
Q 2916 -91 2278 -91 
Q 1894 -91 1617 61 
Q 1341 213 1159 525 
z
M 3116 1747 
Q 3116 2381 2855 2742 
Q 2594 3103 2138 3103 
Q 1681 3103 1420 2742 
Q 1159 2381 1159 1747 
Q 1159 1113 1420 752 
Q 1681 391 2138 391 
Q 2594 391 2855 752 
Q 3116 1113 3116 1747 
z
" transform="scale(0.015625)"/>
      <path id="DejaVuSans-2d" d="M 313 2009 
L 1997 2009 
L 1997 1497 
L 313 1497 
L 313 2009 
z
" transform="scale(0.015625)"/>
      <path id="DejaVuSans-50" d="M 1259 4147 
L 1259 2394 
L 2053 2394 
Q 2494 2394 2734 2622 
Q 2975 2850 2975 3272 
Q 2975 3691 2734 3919 
Q 2494 4147 2053 4147 
L 1259 4147 
z
M 628 4666 
L 2053 4666 
Q 2838 4666 3239 4311 
Q 3641 3956 3641 3272 
Q 3641 2581 3239 2228 
Q 2838 1875 2053 1875 
L 1259 1875 
L 1259 0 
L 628 0 
L 628 4666 
z
" transform="scale(0.015625)"/>
      <path id="DejaVuSans-42" d="M 1259 2228 
L 1259 519 
L 2272 519 
Q 2781 519 3026 730 
Q 3272 941 3272 1375 
Q 3272 1813 3026 2020 
Q 2781 2228 2272 2228 
L 1259 2228 
z
M 1259 4147 
L 1259 2741 
L 2194 2741 
Q 2656 2741 2882 2914 
Q 3109 3088 3109 3444 
Q 3109 3797 2882 3972 
Q 2656 4147 2194 4147 
L 1259 4147 
z
M 628 4666 
L 2241 4666 
Q 2963 4666 3353 4366 
Q 3744 4066 3744 3513 
Q 3744 3084 3544 2831 
Q 3344 2578 2956 2516 
Q 3422 2416 3680 2098 
Q 3938 1781 3938 1306 
Q 3938 681 3513 340 
Q 3088 0 2303 0 
L 628 0 
L 628 4666 
z
" transform="scale(0.015625)"/>
      <path id="DejaVuSans-62" d="M 3116 1747 
Q 3116 2381 2855 2742 
Q 2594 3103 2138 3103 
Q 1681 3103 1420 2742 
Q 1159 2381 1159 1747 
Q 1159 1113 1420 752 
Q 1681 391 2138 391 
Q 2594 391 2855 752 
Q 3116 1113 3116 1747 
z
M 1159 2969 
Q 1341 3281 1617 3432 
Q 1894 3584 2278 3584 
Q 2916 3584 3314 3078 
Q 3713 2572 3713 1747 
Q 3713 922 3314 415 
Q 2916 -91 2278 -91 
Q 1894 -91 1617 61 
Q 1341 213 1159 525 
L 1159 0 
L 581 0 
L 581 4863 
L 1159 4863 
L 1159 2969 
z
" transform="scale(0.015625)"/>
      <path id="DejaVuSans-75" d="M 544 1381 
L 544 3500 
L 1119 3500 
L 1119 1403 
Q 1119 906 1312 657 
Q 1506 409 1894 409 
Q 2359 409 2629 706 
Q 2900 1003 2900 1516 
L 2900 3500 
L 3475 3500 
L 3475 0 
L 2900 0 
L 2900 538 
Q 2691 219 2414 64 
Q 2138 -91 1772 -91 
Q 1169 -91 856 284 
Q 544 659 544 1381 
z
M 1991 3584 
L 1991 3584 
z
" transform="scale(0.015625)"/>
      <path id="DejaVuSans-6d" d="M 3328 2828 
Q 3544 3216 3844 3400 
Q 4144 3584 4550 3584 
Q 5097 3584 5394 3201 
Q 5691 2819 5691 2113 
L 5691 0 
L 5113 0 
L 5113 2094 
Q 5113 2597 4934 2840 
Q 4756 3084 4391 3084 
Q 3944 3084 3684 2787 
Q 3425 2491 3425 1978 
L 3425 0 
L 2847 0 
L 2847 2094 
Q 2847 2600 2669 2842 
Q 2491 3084 2119 3084 
Q 1678 3084 1418 2786 
Q 1159 2488 1159 1978 
L 1159 0 
L 581 0 
L 581 3500 
L 1159 3500 
L 1159 2956 
Q 1356 3278 1631 3431 
Q 1906 3584 2284 3584 
Q 2666 3584 2933 3390 
Q 3200 3197 3328 2828 
z
" transform="scale(0.015625)"/>
     </defs>
     <use xlink:href="#DejaVuSans-53"/>
     <use xlink:href="#DejaVuSans-70" transform="translate(63.476562 0)"/>
     <use xlink:href="#DejaVuSans-69" transform="translate(126.953125 0)"/>
     <use xlink:href="#DejaVuSans-6e" transform="translate(154.736328 0)"/>
     <use xlink:href="#DejaVuSans-2d" transform="translate(218.115234 0)"/>
     <use xlink:href="#DejaVuSans-50" transform="translate(254.199219 0)"/>
     <use xlink:href="#DejaVuSans-68" transform="translate(314.501953 0)"/>
     <use xlink:href="#DejaVuSans-61" transform="translate(377.880859 0)"/>
     <use xlink:href="#DejaVuSans-73" transform="translate(439.160156 0)"/>
     <use xlink:href="#DejaVuSans-65" transform="translate(491.259766 0)"/>
     <use xlink:href="#DejaVuSans-64" transform="translate(552.783203 0)"/>
     <use xlink:href="#DejaVuSans-20" transform="translate(616.259766 0)"/>
     <use xlink:href="#DejaVuSans-42" transform="translate(648.046875 0)"/>
     <use xlink:href="#DejaVuSans-61" transform="translate(716.650391 0)"/>
     <use xlink:href="#DejaVuSans-72" transform="translate(777.929688 0)"/>
     <use xlink:href="#DejaVuSans-62" transform="translate(819.042969 0)"/>
     <use xlink:href="#DejaVuSans-65" transform="translate(882.519531 0)"/>
     <use xlink:href="#DejaVuSans-6c" transform="translate(944.042969 0)"/>
     <use xlink:href="#DejaVuSans-6c" transform="translate(971.826172 0)"/>
     <use xlink:href="#DejaVuSans-20" transform="translate(999.609375 0)"/>
     <use xlink:href="#DejaVuSans-50" transform="translate(1031.396484 0)"/>
     <use xlink:href="#DejaVuSans-75" transform="translate(1089.949219 0)"/>
     <use xlink:href="#DejaVuSans-6d" transform="translate(1153.328125 0)"/>
     <use xlink:href="#DejaVuSans-70" transform="translate(1250.740234 0)"/>
     <use xlink:href="#DejaVuSans-69" transform="translate(1314.216797 0)"/>
     <use xlink:href="#DejaVuSans-6e" transform="translate(1342 0)"/>
     <use xlink:href="#DejaVuSans-67" transform="translate(1405.378906 0)"/>
    </g>
    <!-- Extend at horizontal; retract at vertical -->
    <g transform="translate(99.161984 27.875875) scale(0.11 -0.11)">
     <defs>
      <path id="DejaVuSans-3b" d="M 750 3309 
L 1409 3309 
L 1409 2516 
L 750 2516 
L 750 3309 
z
M 750 794 
L 1409 794 
L 1409 256 
L 897 -744 
L 494 -744 
L 750 256 
L 750 794 
z
" transform="scale(0.015625)"/>
      <path id="DejaVuSans-76" d="M 191 3500 
L 800 3500 
L 1894 563 
L 2988 3500 
L 3597 3500 
L 2284 0 
L 1503 0 
L 191 3500 
z
" transform="scale(0.015625)"/>
     </defs>
     <use xlink:href="#DejaVuSans-45"/>
     <use xlink:href="#DejaVuSans-78" transform="translate(63.183594 0)"/>
     <use xlink:href="#DejaVuSans-74" transform="translate(122.363281 0)"/>
     <use xlink:href="#DejaVuSans-65" transform="translate(161.572266 0)"/>
     <use xlink:href="#DejaVuSans-6e" transform="translate(223.095703 0)"/>
     <use xlink:href="#DejaVuSans-64" transform="translate(286.474609 0)"/>
     <use xlink:href="#DejaVuSans-20" transform="translate(349.951172 0)"/>
     <use xlink:href="#DejaVuSans-61" transform="translate(381.738281 0)"/>
     <use xlink:href="#DejaVuSans-74" transform="translate(443.017578 0)"/>
     <use xlink:href="#DejaVuSans-20" transform="translate(482.226562 0)"/>
     <use xlink:href="#DejaVuSans-68" transform="translate(514.013672 0)"/>
     <use xlink:href="#DejaVuSans-6f" transform="translate(577.392578 0)"/>
     <use xlink:href="#DejaVuSans-72" transform="translate(638.574219 0)"/>
     <use xlink:href="#DejaVuSans-69" transform="translate(679.6875 0)"/>
     <use xlink:href="#DejaVuSans-7a" transform="translate(707.470703 0)"/>
     <use xlink:href="#DejaVuSans-6f" transform="translate(759.960938 0)"/>
     <use xlink:href="#DejaVuSans-6e" transform="translate(821.142578 0)"/>
     <use xlink:href="#DejaVuSans-74" transform="translate(884.521484 0)"/>
     <use xlink:href="#DejaVuSans-61" transform="translate(923.730469 0)"/>
     <use xlink:href="#DejaVuSans-6c" transform="translate(985.009766 0)"/>
     <use xlink:href="#DejaVuSans-3b" transform="translate(1012.792969 0)"/>
     <use xlink:href="#DejaVuSans-20" transform="translate(1046.484375 0)"/>
     <use xlink:href="#DejaVuSans-72" transform="translate(1078.271484 0)"/>
     <use xlink:href="#DejaVuSans-65" transform="translate(1117.134766 0)"/>
     <use xlink:href="#DejaVuSans-74" transform="translate(1178.658203 0)"/>
     <use xlink:href="#DejaVuSans-72" transform="translate(1217.867188 0)"/>
     <use xlink:href="#DejaVuSans-61" transform="translate(1258.980469 0)"/>
     <use xlink:href="#DejaVuSans-63" transform="translate(1320.259766 0)"/>
     <use xlink:href="#DejaVuSans-74" transform="translate(1375.240234 0)"/>
     <use xlink:href="#DejaVuSans-20" transform="translate(1414.449219 0)"/>
     <use xlink:href="#DejaVuSans-61" transform="translate(1446.236328 0)"/>
     <use xlink:href="#DejaVuSans-74" transform="translate(1507.515625 0)"/>
     <use xlink:href="#DejaVuSans-20" transform="translate(1546.724609 0)"/>
     <use xlink:href="#DejaVuSans-76" transform="translate(1578.511719 0)"/>
     <use xlink:href="#DejaVuSans-65" transform="translate(1637.691406 0)"/>
     <use xlink:href="#DejaVuSans-72" transform="translate(1699.214844 0)"/>
     <use xlink:href="#DejaVuSans-74" transform="translate(1740.328125 0)"/>
     <use xlink:href="#DejaVuSans-69" transform="translate(1779.537109 0)"/>
     <use xlink:href="#DejaVuSans-63" transform="translate(1807.320312 0)"/>
     <use xlink:href="#DejaVuSans-61" transform="translate(1862.300781 0)"/>
     <use xlink:href="#DejaVuSans-6c" transform="translate(1923.580078 0)"/>
    </g>
   </g>
  </g>
 </g>
 <defs>
  <clipPath id="p2c9d2fa66b">
   <rect x="40.165031" y="21.847531" width="332.64" height="332.64"/>
  </clipPath>
 </defs>
</svg>
